<?xml version="1.0" encoding="UTF-8" standalone="no"?><!DOCTYPE svg PUBLIC "-//W3C//DTD SVG 1.1//EN" "http://www.w3.org/Graphics/SVG/1.1/DTD/svg11.dtd"><svg width="8534px" height="8534px" version="1.1" xmlns="http://www.w3.org/2000/svg" xmlns:xlink="http://www.w3.org/1999/xlink" xml:space="preserve" xmlns:serif="http://www.serif.com/" style="fill-rule:evenodd;clip-rule:evenodd;stroke-linejoin:round;stroke-miterlimit:2;"><g transform="matrix(4.16667,0,0,4.16667,0,0)"><g id="ActorComponent"><g id="NDynamicReferenceComponent"><g id="Highlight" transform="matrix(75,0,0,75,620.05,658.35)"><path d="M0,8.684C-0.068,8.48 -0.26,8.342 -0.475,8.342L-2.114,8.342C-2.942,8.342 -3.614,7.671 -3.614,6.842L-3.614,1.842C-3.614,1.014 -2.942,0.342 -2.114,0.342L4.886,0.342C5.714,0.342 6.386,1.014 6.386,1.842L6.386,5.342C6.386,5.894 6.833,6.342 7.386,6.342L8.386,6.342C8.938,6.342 9.386,5.894 9.386,5.342L9.386,1.842C9.386,-0.643 7.371,-2.658 4.886,-2.658L-2.114,-2.658C-4.6,-2.658 -6.614,-0.643 -6.614,1.842L-6.614,6.842C-6.614,9.328 -4.6,11.342 -2.114,11.342L0.192,11.342C0.533,11.342 0.774,11.008 0.666,10.684L0,8.684ZM17.386,1.842L17.386,6.842C17.386,9.328 15.371,11.342 12.886,11.342L5.886,11.342C3.4,11.342 1.386,9.328 1.386,6.842L1.386,3.342C1.386,2.79 1.833,2.342 2.386,2.342L3.386,2.342C3.938,2.342 4.386,2.79 4.386,3.342L4.386,6.842C4.386,7.671 5.058,8.342 5.886,8.342L12.886,8.342C13.714,8.342 14.386,7.671 14.386,6.842L14.386,1.842C14.386,1.014 13.714,0.342 12.886,0.342L11.246,0.342C11.031,0.342 10.84,0.205 10.771,0L10.105,-2C9.997,-2.323 10.238,-2.658 10.579,-2.658L12.886,-2.658C15.371,-2.658 17.386,-0.643 17.386,1.842" style="fill:#fff;fill-rule:nonzero;"/></g><g id="Shadow" transform="matrix(75,0,0,75,620.05,738.35)"><path d="M0,8.684C-0.068,8.48 -0.26,8.342 -0.475,8.342L-2.114,8.342C-2.942,8.342 -3.614,7.671 -3.614,6.842L-3.614,1.842C-3.614,1.014 -2.942,0.342 -2.114,0.342L4.886,0.342C5.714,0.342 6.386,1.014 6.386,1.842L6.386,5.342C6.386,5.894 6.833,6.342 7.386,6.342L8.386,6.342C8.938,6.342 9.386,5.894 9.386,5.342L9.386,1.842C9.386,-0.643 7.371,-2.658 4.886,-2.658L-2.114,-2.658C-4.6,-2.658 -6.614,-0.643 -6.614,1.842L-6.614,6.842C-6.614,9.328 -4.6,11.342 -2.114,11.342L0.192,11.342C0.533,11.342 0.774,11.008 0.666,10.684L0,8.684ZM17.386,1.842L17.386,6.842C17.386,9.328 15.371,11.342 12.886,11.342L5.886,11.342C3.4,11.342 1.386,9.328 1.386,6.842L1.386,3.342C1.386,2.79 1.833,2.342 2.386,2.342L3.386,2.342C3.938,2.342 4.386,2.79 4.386,3.342L4.386,6.842C4.386,7.671 5.058,8.342 5.886,8.342L12.886,8.342C13.714,8.342 14.386,7.671 14.386,6.842L14.386,1.842C14.386,1.014 13.714,0.342 12.886,0.342L11.246,0.342C11.031,0.342 10.84,0.205 10.771,0L10.105,-2C9.997,-2.323 10.238,-2.658 10.579,-2.658L12.886,-2.658C15.371,-2.658 17.386,-0.643 17.386,1.842" style="fill:#363636;fill-rule:nonzero;"/></g><g id="Icon" transform="matrix(75,0,0,75,620.05,698.35)"><path d="M0,8.684C-0.068,8.48 -0.26,8.342 -0.475,8.342L-2.114,8.342C-2.942,8.342 -3.614,7.671 -3.614,6.842L-3.614,1.842C-3.614,1.014 -2.942,0.342 -2.114,0.342L4.886,0.342C5.714,0.342 6.386,1.014 6.386,1.842L6.386,5.342C6.386,5.894 6.833,6.342 7.386,6.342L8.386,6.342C8.938,6.342 9.386,5.894 9.386,5.342L9.386,1.842C9.386,-0.643 7.371,-2.658 4.886,-2.658L-2.114,-2.658C-4.6,-2.658 -6.614,-0.643 -6.614,1.842L-6.614,6.842C-6.614,9.328 -4.6,11.342 -2.114,11.342L0.192,11.342C0.533,11.342 0.774,11.008 0.666,10.684L0,8.684ZM17.386,1.842L17.386,6.842C17.386,9.328 15.371,11.342 12.886,11.342L5.886,11.342C3.4,11.342 1.386,9.328 1.386,6.842L1.386,3.342C1.386,2.79 1.833,2.342 2.386,2.342L3.386,2.342C3.938,2.342 4.386,2.79 4.386,3.342L4.386,6.842C4.386,7.671 5.058,8.342 5.886,8.342L12.886,8.342C13.714,8.342 14.386,7.671 14.386,6.842L14.386,1.842C14.386,1.014 13.714,0.342 12.886,0.342L11.246,0.342C11.031,0.342 10.84,0.205 10.771,0L10.105,-2C9.997,-2.323 10.238,-2.658 10.579,-2.658L12.886,-2.658C15.371,-2.658 17.386,-0.643 17.386,1.842" style="fill:url(#_Linear1);fill-rule:nonzero;"/></g></g></g></g><defs><linearGradient id="_Linear1" x1="0" y1="0" x2="1" y2="0" gradientUnits="userSpaceOnUse" gradientTransform="matrix(24,0,0,14,-6.614,4.342)"><stop offset="0" style="stop-color:#25e2f5;stop-opacity:1"/><stop offset="0.5" style="stop-color:#1c9aff;stop-opacity:1"/><stop offset="1" style="stop-color:#e062e9;stop-opacity:1"/></linearGradient></defs></svg>