<?xml version="1.0" encoding="UTF-8" standalone="no"?><!DOCTYPE svg PUBLIC "-//W3C//DTD SVG 1.1//EN" "http://www.w3.org/Graphics/SVG/1.1/DTD/svg11.dtd"><svg width="8534px" height="8534px" version="1.1" xmlns="http://www.w3.org/2000/svg" xmlns:xlink="http://www.w3.org/1999/xlink" xml:space="preserve" xmlns:serif="http://www.serif.com/" style="fill-rule:evenodd;clip-rule:evenodd;stroke-linejoin:round;stroke-miterlimit:2;"><g transform="matrix(4.16667,0,0,4.16667,0,0)"><g id="Actor"></g><g id="ActorComponent"><g id="NCellJunctionComponent"><g id="Highlight" transform="matrix(75,0,0,75,1807.23,1045.57)"><path d="M0,-1.642L-5.746,-5.631C-6.409,-6.091 -7.316,-5.617 -7.316,-4.809L-7.316,-2.821L-14.316,-2.821C-14.869,-2.821 -15.316,-2.373 -15.316,-1.821L-15.316,0.179C-15.316,0.732 -14.869,1.179 -14.316,1.179L-7.316,1.179L-7.316,3.168C-7.316,3.975 -6.409,4.45 -5.746,3.989L0,0.001C0.573,-0.397 0.573,-1.245 0,-1.642M-4.605,5.632L-2.316,4.044L-2.316,7.679C-2.316,9.609 -3.887,11.179 -5.816,11.179L-17.816,11.179C-19.746,11.179 -21.316,9.609 -21.316,7.679L-21.316,-9.321C-21.316,-11.25 -19.746,-12.821 -17.816,-12.821L-5.816,-12.821C-3.887,-12.821 -2.316,-11.25 -2.316,-9.321L-2.316,-5.684L-4.605,-7.273C-4.827,-7.428 -5.067,-7.544 -5.316,-7.633L-5.316,-9.321C-5.316,-9.592 -5.545,-9.821 -5.816,-9.821L-17.816,-9.821C-18.088,-9.821 -18.316,-9.592 -18.316,-9.321L-18.316,7.679C-18.316,7.95 -18.088,8.179 -17.816,8.179L-5.816,8.179C-5.545,8.179 -5.316,7.95 -5.316,7.679L-5.316,5.991C-5.067,5.903 -4.827,5.787 -4.605,5.632" style="fill:#fff;fill-rule:nonzero;"/></g><g id="Shadow" transform="matrix(75,0,0,75,1807.23,1125.57)"><path d="M0,-1.642L-5.746,-5.631C-6.409,-6.091 -7.316,-5.617 -7.316,-4.809L-7.316,-2.821L-14.316,-2.821C-14.869,-2.821 -15.316,-2.373 -15.316,-1.821L-15.316,0.179C-15.316,0.732 -14.869,1.179 -14.316,1.179L-7.316,1.179L-7.316,3.168C-7.316,3.975 -6.409,4.45 -5.746,3.989L0,0.001C0.573,-0.397 0.573,-1.245 0,-1.642M-4.605,5.632L-2.316,4.044L-2.316,7.679C-2.316,9.609 -3.887,11.179 -5.816,11.179L-17.816,11.179C-19.746,11.179 -21.316,9.609 -21.316,7.679L-21.316,-9.321C-21.316,-11.25 -19.746,-12.821 -17.816,-12.821L-5.816,-12.821C-3.887,-12.821 -2.316,-11.25 -2.316,-9.321L-2.316,-5.684L-4.605,-7.273C-4.827,-7.428 -5.067,-7.544 -5.316,-7.633L-5.316,-9.321C-5.316,-9.592 -5.545,-9.821 -5.816,-9.821L-17.816,-9.821C-18.088,-9.821 -18.316,-9.592 -18.316,-9.321L-18.316,7.679C-18.316,7.95 -18.088,8.179 -17.816,8.179L-5.816,8.179C-5.545,8.179 -5.316,7.95 -5.316,7.679L-5.316,5.991C-5.067,5.903 -4.827,5.787 -4.605,5.632" style="fill:#363636;fill-rule:nonzero;"/></g><g id="Icon" transform="matrix(75,0,0,75,1807.23,1085.57)"><path d="M0,-1.642L-5.746,-5.631C-6.409,-6.091 -7.316,-5.617 -7.316,-4.809L-7.316,-2.821L-14.316,-2.821C-14.869,-2.821 -15.316,-2.373 -15.316,-1.821L-15.316,0.179C-15.316,0.732 -14.869,1.179 -14.316,1.179L-7.316,1.179L-7.316,3.168C-7.316,3.975 -6.409,4.45 -5.746,3.989L0,0.001C0.573,-0.397 0.573,-1.245 0,-1.642M-4.605,5.632L-2.316,4.044L-2.316,7.679C-2.316,9.609 -3.887,11.179 -5.816,11.179L-17.816,11.179C-19.746,11.179 -21.316,9.609 -21.316,7.679L-21.316,-9.321C-21.316,-11.25 -19.746,-12.821 -17.816,-12.821L-5.816,-12.821C-3.887,-12.821 -2.316,-11.25 -2.316,-9.321L-2.316,-5.684L-4.605,-7.273C-4.827,-7.428 -5.067,-7.544 -5.316,-7.633L-5.316,-9.321C-5.316,-9.592 -5.545,-9.821 -5.816,-9.821L-17.816,-9.821C-18.088,-9.821 -18.316,-9.592 -18.316,-9.321L-18.316,7.679C-18.316,7.95 -18.088,8.179 -17.816,8.179L-5.816,8.179C-5.545,8.179 -5.316,7.95 -5.316,7.679L-5.316,5.991C-5.067,5.903 -4.827,5.787 -4.605,5.632" style="fill:url(#_Linear1);fill-rule:nonzero;"/></g></g></g></g><defs><linearGradient id="_Linear1" x1="0" y1="0" x2="1" y2="0" gradientUnits="userSpaceOnUse" gradientTransform="matrix(21.7457,0,0,24,-21.316,-0.821)"><stop offset="0" style="stop-color:#25e2f5;stop-opacity:1"/><stop offset="0.5" style="stop-color:#1c9aff;stop-opacity:1"/><stop offset="1" style="stop-color:#e062e9;stop-opacity:1"/></linearGradient></defs></svg>