<?xml version="1.0" encoding="UTF-8" standalone="no"?><!DOCTYPE svg PUBLIC "-//W3C//DTD SVG 1.1//EN" "http://www.w3.org/Graphics/SVG/1.1/DTD/svg11.dtd"><svg width="8534px" height="8534px" version="1.1" xmlns="http://www.w3.org/2000/svg" xmlns:xlink="http://www.w3.org/1999/xlink" xml:space="preserve" xmlns:serif="http://www.serif.com/" style="fill-rule:evenodd;clip-rule:evenodd;stroke-linejoin:round;stroke-miterlimit:2;"><g transform="matrix(4.16667,0,0,4.16667,0,0)"><g id="ProcGenEd"><g id="Icon"><g id="Highlight" transform="matrix(75,0,0,75,1294.3,853.5)"><path d="M0,3.48L-5.918,-1.528C-6.189,-1.757 -6.442,-2.003 -6.683,-2.26L-3.521,-2.26L-2.583,-3.055C-2.158,-3.415 -1.787,-3.821 -1.464,-4.26L-8.085,-4.26C-8.413,-4.894 -8.669,-5.563 -8.84,-6.26L-0.443,-6.26C-0.238,-6.901 -0.126,-7.573 -0.112,-8.26L-9.097,-8.26C-9.098,-8.306 -9.104,-8.352 -9.104,-8.398L-9.104,-9.26C-9.104,-9.813 -9.552,-10.26 -10.104,-10.26C-10.657,-10.26 -11.104,-9.813 -11.104,-9.26L-11.104,-8.398C-11.104,-5.156 -9.685,-2.095 -7.209,0L-1.291,5.007C-1.02,5.237 -0.767,5.483 -0.526,5.74L-3.688,5.74L-4.626,6.535C-5.051,6.894 -5.422,7.3 -5.745,7.74L0.876,7.74C1.204,8.374 1.46,9.042 1.631,9.74L-6.766,9.74C-6.971,10.38 -7.083,11.052 -7.097,11.74L1.888,11.74C1.889,11.786 1.896,11.832 1.896,11.877L1.896,12.74C1.896,13.293 2.343,13.74 2.896,13.74C3.448,13.74 3.896,13.293 3.896,12.74L3.896,11.877C3.896,8.635 2.476,5.575 0,3.48M-5.918,5.007L-5.152,4.36L-6.701,3.05L-7.209,3.48C-9.685,5.575 -11.104,8.635 -11.104,11.877L-11.104,12.74C-11.104,13.293 -10.657,13.74 -10.104,13.74C-9.552,13.74 -9.104,13.293 -9.104,12.74L-9.104,11.877C-9.104,9.225 -7.943,6.72 -5.918,5.007M3.896,-9.26L3.896,-8.398C3.896,-5.156 2.476,-2.095 0,0L-0.508,0.429L-2.057,-0.88L-1.291,-1.528C0.734,-3.241 1.896,-5.746 1.896,-8.398L1.896,-9.26C1.896,-9.813 2.343,-10.26 2.896,-10.26C3.448,-10.26 3.896,-9.813 3.896,-9.26" style="fill:#fff;fill-rule:nonzero;"/></g><g id="Shadow" transform="matrix(75,0,0,75,1294.3,933.5)"><path d="M0,3.48L-5.918,-1.528C-6.189,-1.757 -6.442,-2.003 -6.683,-2.26L-3.521,-2.26L-2.583,-3.055C-2.158,-3.415 -1.787,-3.821 -1.464,-4.26L-8.085,-4.26C-8.413,-4.894 -8.669,-5.563 -8.84,-6.26L-0.443,-6.26C-0.238,-6.901 -0.126,-7.573 -0.112,-8.26L-9.097,-8.26C-9.098,-8.306 -9.104,-8.352 -9.104,-8.398L-9.104,-9.26C-9.104,-9.813 -9.552,-10.26 -10.104,-10.26C-10.657,-10.26 -11.104,-9.813 -11.104,-9.26L-11.104,-8.398C-11.104,-5.156 -9.685,-2.095 -7.209,0L-1.291,5.007C-1.02,5.237 -0.767,5.483 -0.526,5.74L-3.688,5.74L-4.626,6.535C-5.051,6.894 -5.422,7.3 -5.745,7.74L0.876,7.74C1.204,8.374 1.46,9.042 1.631,9.74L-6.766,9.74C-6.971,10.38 -7.083,11.052 -7.097,11.74L1.888,11.74C1.889,11.786 1.896,11.832 1.896,11.877L1.896,12.74C1.896,13.293 2.343,13.74 2.896,13.74C3.448,13.74 3.896,13.293 3.896,12.74L3.896,11.877C3.896,8.635 2.476,5.575 0,3.48M-5.918,5.007L-5.152,4.36L-6.701,3.05L-7.209,3.48C-9.685,5.575 -11.104,8.635 -11.104,11.877L-11.104,12.74C-11.104,13.293 -10.657,13.74 -10.104,13.74C-9.552,13.74 -9.104,13.293 -9.104,12.74L-9.104,11.877C-9.104,9.225 -7.943,6.72 -5.918,5.007M3.896,-9.26L3.896,-8.398C3.896,-5.156 2.476,-2.095 0,0L-0.508,0.429L-2.057,-0.88L-1.291,-1.528C0.734,-3.241 1.896,-5.746 1.896,-8.398L1.896,-9.26C1.896,-9.813 2.343,-10.26 2.896,-10.26C3.448,-10.26 3.896,-9.813 3.896,-9.26" style="fill:#363636;fill-rule:nonzero;"/></g><g id="Icon1" serif:id="Icon" transform="matrix(75,0,0,75,1294.3,893.5)"><path d="M0,3.48L-5.918,-1.528C-6.189,-1.757 -6.442,-2.003 -6.683,-2.26L-3.521,-2.26L-2.583,-3.055C-2.158,-3.415 -1.787,-3.821 -1.464,-4.26L-8.085,-4.26C-8.413,-4.894 -8.669,-5.563 -8.84,-6.26L-0.443,-6.26C-0.238,-6.901 -0.126,-7.573 -0.112,-8.26L-9.097,-8.26C-9.098,-8.306 -9.104,-8.352 -9.104,-8.398L-9.104,-9.26C-9.104,-9.813 -9.552,-10.26 -10.104,-10.26C-10.657,-10.26 -11.104,-9.813 -11.104,-9.26L-11.104,-8.398C-11.104,-5.156 -9.685,-2.095 -7.209,0L-1.291,5.007C-1.02,5.237 -0.767,5.483 -0.526,5.74L-3.688,5.74L-4.626,6.535C-5.051,6.894 -5.422,7.3 -5.745,7.74L0.876,7.74C1.204,8.374 1.46,9.042 1.631,9.74L-6.766,9.74C-6.971,10.38 -7.083,11.052 -7.097,11.74L1.888,11.74C1.889,11.786 1.896,11.832 1.896,11.877L1.896,12.74C1.896,13.293 2.343,13.74 2.896,13.74C3.448,13.74 3.896,13.293 3.896,12.74L3.896,11.877C3.896,8.635 2.476,5.575 0,3.48M-5.918,5.007L-5.152,4.36L-6.701,3.05L-7.209,3.48C-9.685,5.575 -11.104,8.635 -11.104,11.877L-11.104,12.74C-11.104,13.293 -10.657,13.74 -10.104,13.74C-9.552,13.74 -9.104,13.293 -9.104,12.74L-9.104,11.877C-9.104,9.225 -7.943,6.72 -5.918,5.007M3.896,-9.26L3.896,-8.398C3.896,-5.156 2.476,-2.095 0,0L-0.508,0.429L-2.057,-0.88L-1.291,-1.528C0.734,-3.241 1.896,-5.746 1.896,-8.398L1.896,-9.26C1.896,-9.813 2.343,-10.26 2.896,-10.26C3.448,-10.26 3.896,-9.813 3.896,-9.26" style="fill:url(#_Linear1);fill-rule:nonzero;"/></g></g></g></g><defs><linearGradient id="_Linear1" x1="0" y1="0" x2="1" y2="0" gradientUnits="userSpaceOnUse" gradientTransform="matrix(15,0,0,24,-11.104,1.74)"><stop offset="0" style="stop-color:#25e2f5;stop-opacity:1"/><stop offset="0.5" style="stop-color:#1c9aff;stop-opacity:1"/><stop offset="1" style="stop-color:#e062e9;stop-opacity:1"/></linearGradient></defs></svg>