<?xml version="1.0" encoding="UTF-8" standalone="no"?><!DOCTYPE svg PUBLIC "-//W3C//DTD SVG 1.1//EN" "http://www.w3.org/Graphics/SVG/1.1/DTD/svg11.dtd"><svg width="8534px" height="8534px" version="1.1" xmlns="http://www.w3.org/2000/svg" xmlns:xlink="http://www.w3.org/1999/xlink" xml:space="preserve" xmlns:serif="http://www.serif.com/" style="fill-rule:evenodd;clip-rule:evenodd;stroke-linejoin:round;stroke-miterlimit:2;"><g transform="matrix(4.16667,0,0,4.16667,0,0)"><g id="ActorComponent"><g id="NCellRootComponent"><g id="Highlight" transform="matrix(69.2308,0,0,69.2308,1785.54,1122.46)"><path d="M0,-4C0,-4.552 -0.448,-5 -1,-5C-1.553,-5 -2,-5.447 -2,-6L-2,-8C-2,-9.103 -2.897,-10 -4,-10L-7,-10C-7.553,-10 -8,-10.447 -8,-11C-8,-11.553 -7.553,-12 -7,-12C-7,-12.552 -7.448,-13 -8,-13L-9.5,-13C-9.706,-13 -9.871,-12.934 -10,-12.852L-10,-5.815C-9.686,-5.928 -9.353,-6 -9,-6L-8,-6C-7.448,-6 -7,-6.448 -7,-7C-7,-7.553 -6.553,-8 -6,-8C-5.447,-8 -5,-7.553 -5,-7C-5,-6.448 -4.552,-6 -4,-6C-3.447,-6 -3,-5.553 -3,-5C-3,-4.447 -3.447,-4 -4,-4C-4.771,-4 -5.468,-4.301 -6,-4.78C-6.532,-4.301 -7.229,-4 -8,-4L-9,-4C-9.552,-4 -10,-3.552 -10,-3L-10,2C-10,2.552 -9.552,3 -9,3L-8,3C-7.229,3 -6.532,3.301 -6,3.78C-5.468,3.301 -4.771,3 -4,3C-3.447,3 -3,3.447 -3,4C-3,4.553 -3.447,5 -4,5C-4.552,5 -5,5.448 -5,6C-5,6.553 -5.447,7 -6,7C-6.553,7 -7,6.553 -7,6C-7,5.448 -7.448,5 -8,5L-9,5C-9.552,5 -10,5.448 -10,6L-10,6.915C-9.617,8.109 -8.351,9 -7,9L-6,9C-4.636,9 -3.444,8.075 -3.102,6.75C-2.988,6.309 -2.59,6 -2.134,6L-1.999,6C-1.465,6 -0.963,5.792 -0.586,5.415C-0.208,5.038 0,4.536 0,4.002L0,3C0,1.897 -0.897,1 -2,1C-2.553,1 -3,0.553 -3,0C-3,-0.553 -2.553,-1 -2,-1L-1,-1C-0.448,-1 0,-1.448 0,-2L0,-4ZM-12,-12.853C-12.129,-12.934 -12.293,-13 -12.5,-13L-14,-13C-14.552,-13 -15,-12.552 -15,-12L-15,-11C-15,-10.447 -15.447,-10 -16,-10L-18,-10C-19.103,-10 -20,-9.103 -20,-8L-20,-6C-20,-5.447 -20.447,-5 -21,-5C-21.552,-5 -22,-4.552 -22,-4L-22,-2C-22,-1.448 -21.552,-1 -21,-1C-20.733,-1 -20.479,-0.894 -20.291,-0.705C-20.104,-0.517 -19.998,-0.261 -20,0.006L-20.001,0.177C-20.003,0.599 -20.27,0.973 -20.668,1.113C-21.465,1.396 -22,2.153 -22,3L-22,4.002C-22,4.536 -21.792,5.038 -21.414,5.415C-21.037,5.792 -20.535,6 -20.002,6L-17,6C-16.447,6 -16,6.447 -16,7C-16,7.553 -16.447,8 -17,8L-18.226,8C-17.671,8.619 -16.872,9 -16,9L-15,9C-13.649,9 -12.383,8.109 -12,6.915L-12,5C-12,4.448 -12.448,4 -13,4L-14,4C-14.771,4 -15.468,3.699 -16,3.22C-16.532,3.699 -17.229,4 -18,4C-18.553,4 -19,3.553 -19,3C-19,2.447 -18.553,2 -18,2C-17.448,2 -17,1.552 -17,1L-17,0C-17,-0.552 -17.448,-1 -18,-1C-18.553,-1 -19,-1.447 -19,-2C-19,-2.553 -18.553,-3 -18,-3C-16.346,-3 -15,-1.654 -15,0L-15,1C-15,1.552 -14.552,2 -14,2L-13,2C-12.448,2 -12,1.552 -12,1L-12,0C-12,-0.552 -12.448,-1 -13,-1C-13.553,-1 -14,-1.447 -14,-2C-14,-2.553 -13.553,-3 -13,-3C-12.448,-3 -12,-3.448 -12,-4C-12,-4.552 -12.448,-5 -13,-5C-13.771,-5 -14.468,-5.301 -15,-5.78C-15.532,-5.301 -16.229,-5 -17,-5C-17.553,-5 -18,-5.447 -18,-6C-18,-6.553 -17.553,-7 -17,-7C-16.448,-7 -16,-7.448 -16,-8C-16,-8.553 -15.553,-9 -15,-9C-14.447,-9 -14,-8.553 -14,-8C-14,-7.448 -13.552,-7 -13,-7C-12.647,-7 -12.314,-6.928 -12,-6.815L-12,-12.853ZM2,-2C2,-1.084 1.587,-0.263 0.938,0.288C1.597,1.002 2,1.955 2,3L2,4.002C2,5.07 1.584,6.075 0.828,6.83C0.215,7.443 -0.562,7.832 -1.405,7.957C-2.179,9.78 -3.976,11 -6,11L-7,11C-8.567,11 -10.039,10.282 -11,9.153C-11.961,10.282 -13.433,11 -15,11L-16,11C-18.024,11 -19.821,9.78 -20.595,7.957C-21.437,7.832 -22.215,7.443 -22.828,6.83C-23.584,6.075 -24,5.07 -24,4.002L-24,3C-24,1.973 -23.605,1.011 -22.938,0.287C-23.588,-0.264 -24,-1.084 -24,-2L-24,-4C-24,-5.304 -23.164,-6.416 -22,-6.829L-22,-8C-22,-10.206 -20.206,-12 -18,-12L-17,-12C-17,-13.654 -15.654,-15 -14,-15L-12.5,-15C-11.97,-15 -11.453,-14.854 -11,-14.587C-10.547,-14.854 -10.03,-15 -9.5,-15L-8,-15C-6.346,-15 -5,-13.654 -5,-12L-4,-12C-1.794,-12 0,-10.206 0,-8L0,-6.829C1.164,-6.416 2,-5.304 2,-4L2,-2ZM-4,-2C-4,-0.346 -5.346,1 -7,1C-7.553,1 -8,0.553 -8,0C-8,-0.553 -7.553,-1 -7,-1C-6.448,-1 -6,-1.448 -6,-2C-6,-2.553 -5.553,-3 -5,-3C-4.447,-3 -4,-2.553 -4,-2" style="fill:#fff;fill-rule:nonzero;"/></g><g id="Shadow" transform="matrix(69.2308,0,0,69.2308,1785.54,1202.46)"><path d="M0,-4C0,-4.552 -0.448,-5 -1,-5C-1.553,-5 -2,-5.447 -2,-6L-2,-8C-2,-9.103 -2.897,-10 -4,-10L-7,-10C-7.553,-10 -8,-10.447 -8,-11C-8,-11.553 -7.553,-12 -7,-12C-7,-12.552 -7.448,-13 -8,-13L-9.5,-13C-9.706,-13 -9.871,-12.934 -10,-12.852L-10,-5.815C-9.686,-5.928 -9.353,-6 -9,-6L-8,-6C-7.448,-6 -7,-6.448 -7,-7C-7,-7.553 -6.553,-8 -6,-8C-5.447,-8 -5,-7.553 -5,-7C-5,-6.448 -4.552,-6 -4,-6C-3.447,-6 -3,-5.553 -3,-5C-3,-4.447 -3.447,-4 -4,-4C-4.771,-4 -5.468,-4.301 -6,-4.78C-6.532,-4.301 -7.229,-4 -8,-4L-9,-4C-9.552,-4 -10,-3.552 -10,-3L-10,2C-10,2.552 -9.552,3 -9,3L-8,3C-7.229,3 -6.532,3.301 -6,3.78C-5.468,3.301 -4.771,3 -4,3C-3.447,3 -3,3.447 -3,4C-3,4.553 -3.447,5 -4,5C-4.552,5 -5,5.448 -5,6C-5,6.553 -5.447,7 -6,7C-6.553,7 -7,6.553 -7,6C-7,5.448 -7.448,5 -8,5L-9,5C-9.552,5 -10,5.448 -10,6L-10,6.915C-9.617,8.109 -8.351,9 -7,9L-6,9C-4.636,9 -3.444,8.075 -3.102,6.75C-2.988,6.309 -2.59,6 -2.134,6L-1.999,6C-1.465,6 -0.963,5.792 -0.586,5.415C-0.208,5.038 0,4.536 0,4.002L0,3C0,1.897 -0.897,1 -2,1C-2.553,1 -3,0.553 -3,0C-3,-0.553 -2.553,-1 -2,-1L-1,-1C-0.448,-1 0,-1.448 0,-2L0,-4ZM-12,-12.853C-12.129,-12.934 -12.293,-13 -12.5,-13L-14,-13C-14.552,-13 -15,-12.552 -15,-12L-15,-11C-15,-10.447 -15.447,-10 -16,-10L-18,-10C-19.103,-10 -20,-9.103 -20,-8L-20,-6C-20,-5.447 -20.447,-5 -21,-5C-21.552,-5 -22,-4.552 -22,-4L-22,-2C-22,-1.448 -21.552,-1 -21,-1C-20.733,-1 -20.479,-0.894 -20.291,-0.705C-20.104,-0.517 -19.998,-0.261 -20,0.006L-20.001,0.177C-20.003,0.599 -20.27,0.973 -20.668,1.113C-21.465,1.396 -22,2.153 -22,3L-22,4.002C-22,4.536 -21.792,5.038 -21.414,5.415C-21.037,5.792 -20.535,6 -20.002,6L-17,6C-16.447,6 -16,6.447 -16,7C-16,7.553 -16.447,8 -17,8L-18.226,8C-17.671,8.619 -16.872,9 -16,9L-15,9C-13.649,9 -12.383,8.109 -12,6.915L-12,5C-12,4.448 -12.448,4 -13,4L-14,4C-14.771,4 -15.468,3.699 -16,3.22C-16.532,3.699 -17.229,4 -18,4C-18.553,4 -19,3.553 -19,3C-19,2.447 -18.553,2 -18,2C-17.448,2 -17,1.552 -17,1L-17,0C-17,-0.552 -17.448,-1 -18,-1C-18.553,-1 -19,-1.447 -19,-2C-19,-2.553 -18.553,-3 -18,-3C-16.346,-3 -15,-1.654 -15,0L-15,1C-15,1.552 -14.552,2 -14,2L-13,2C-12.448,2 -12,1.552 -12,1L-12,0C-12,-0.552 -12.448,-1 -13,-1C-13.553,-1 -14,-1.447 -14,-2C-14,-2.553 -13.553,-3 -13,-3C-12.448,-3 -12,-3.448 -12,-4C-12,-4.552 -12.448,-5 -13,-5C-13.771,-5 -14.468,-5.301 -15,-5.78C-15.532,-5.301 -16.229,-5 -17,-5C-17.553,-5 -18,-5.447 -18,-6C-18,-6.553 -17.553,-7 -17,-7C-16.448,-7 -16,-7.448 -16,-8C-16,-8.553 -15.553,-9 -15,-9C-14.447,-9 -14,-8.553 -14,-8C-14,-7.448 -13.552,-7 -13,-7C-12.647,-7 -12.314,-6.928 -12,-6.815L-12,-12.853ZM2,-2C2,-1.084 1.587,-0.263 0.938,0.288C1.597,1.002 2,1.955 2,3L2,4.002C2,5.07 1.584,6.075 0.828,6.83C0.215,7.443 -0.562,7.832 -1.405,7.957C-2.179,9.78 -3.976,11 -6,11L-7,11C-8.567,11 -10.039,10.282 -11,9.153C-11.961,10.282 -13.433,11 -15,11L-16,11C-18.024,11 -19.821,9.78 -20.595,7.957C-21.437,7.832 -22.215,7.443 -22.828,6.83C-23.584,6.075 -24,5.07 -24,4.002L-24,3C-24,1.973 -23.605,1.011 -22.938,0.287C-23.588,-0.264 -24,-1.084 -24,-2L-24,-4C-24,-5.304 -23.164,-6.416 -22,-6.829L-22,-8C-22,-10.206 -20.206,-12 -18,-12L-17,-12C-17,-13.654 -15.654,-15 -14,-15L-12.5,-15C-11.97,-15 -11.453,-14.854 -11,-14.587C-10.547,-14.854 -10.03,-15 -9.5,-15L-8,-15C-6.346,-15 -5,-13.654 -5,-12L-4,-12C-1.794,-12 0,-10.206 0,-8L0,-6.829C1.164,-6.416 2,-5.304 2,-4L2,-2ZM-4,-2C-4,-0.346 -5.346,1 -7,1C-7.553,1 -8,0.553 -8,0C-8,-0.553 -7.553,-1 -7,-1C-6.448,-1 -6,-1.448 -6,-2C-6,-2.553 -5.553,-3 -5,-3C-4.447,-3 -4,-2.553 -4,-2" style="fill:#363636;fill-rule:nonzero;"/></g><g id="Icon" transform="matrix(69.2308,0,0,69.2308,1785.54,1162.46)"><path d="M0,-4C0,-4.552 -0.448,-5 -1,-5C-1.553,-5 -2,-5.447 -2,-6L-2,-8C-2,-9.103 -2.897,-10 -4,-10L-7,-10C-7.553,-10 -8,-10.447 -8,-11C-8,-11.553 -7.553,-12 -7,-12C-7,-12.552 -7.448,-13 -8,-13L-9.5,-13C-9.706,-13 -9.871,-12.934 -10,-12.852L-10,-5.815C-9.686,-5.928 -9.353,-6 -9,-6L-8,-6C-7.448,-6 -7,-6.448 -7,-7C-7,-7.553 -6.553,-8 -6,-8C-5.447,-8 -5,-7.553 -5,-7C-5,-6.448 -4.552,-6 -4,-6C-3.447,-6 -3,-5.553 -3,-5C-3,-4.447 -3.447,-4 -4,-4C-4.771,-4 -5.468,-4.301 -6,-4.78C-6.532,-4.301 -7.229,-4 -8,-4L-9,-4C-9.552,-4 -10,-3.552 -10,-3L-10,2C-10,2.552 -9.552,3 -9,3L-8,3C-7.229,3 -6.532,3.301 -6,3.78C-5.468,3.301 -4.771,3 -4,3C-3.447,3 -3,3.447 -3,4C-3,4.553 -3.447,5 -4,5C-4.552,5 -5,5.448 -5,6C-5,6.553 -5.447,7 -6,7C-6.553,7 -7,6.553 -7,6C-7,5.448 -7.448,5 -8,5L-9,5C-9.552,5 -10,5.448 -10,6L-10,6.915C-9.617,8.109 -8.351,9 -7,9L-6,9C-4.636,9 -3.444,8.075 -3.102,6.75C-2.988,6.309 -2.59,6 -2.134,6L-1.999,6C-1.465,6 -0.963,5.792 -0.586,5.415C-0.208,5.038 0,4.536 0,4.002L0,3C0,1.897 -0.897,1 -2,1C-2.553,1 -3,0.553 -3,0C-3,-0.553 -2.553,-1 -2,-1L-1,-1C-0.448,-1 0,-1.448 0,-2L0,-4ZM-12,-12.853C-12.129,-12.934 -12.293,-13 -12.5,-13L-14,-13C-14.552,-13 -15,-12.552 -15,-12L-15,-11C-15,-10.447 -15.447,-10 -16,-10L-18,-10C-19.103,-10 -20,-9.103 -20,-8L-20,-6C-20,-5.447 -20.447,-5 -21,-5C-21.552,-5 -22,-4.552 -22,-4L-22,-2C-22,-1.448 -21.552,-1 -21,-1C-20.733,-1 -20.479,-0.894 -20.291,-0.705C-20.104,-0.517 -19.998,-0.261 -20,0.006L-20.001,0.177C-20.003,0.599 -20.27,0.973 -20.668,1.113C-21.465,1.396 -22,2.153 -22,3L-22,4.002C-22,4.536 -21.792,5.038 -21.414,5.415C-21.037,5.792 -20.535,6 -20.002,6L-17,6C-16.447,6 -16,6.447 -16,7C-16,7.553 -16.447,8 -17,8L-18.226,8C-17.671,8.619 -16.872,9 -16,9L-15,9C-13.649,9 -12.383,8.109 -12,6.915L-12,5C-12,4.448 -12.448,4 -13,4L-14,4C-14.771,4 -15.468,3.699 -16,3.22C-16.532,3.699 -17.229,4 -18,4C-18.553,4 -19,3.553 -19,3C-19,2.447 -18.553,2 -18,2C-17.448,2 -17,1.552 -17,1L-17,0C-17,-0.552 -17.448,-1 -18,-1C-18.553,-1 -19,-1.447 -19,-2C-19,-2.553 -18.553,-3 -18,-3C-16.346,-3 -15,-1.654 -15,0L-15,1C-15,1.552 -14.552,2 -14,2L-13,2C-12.448,2 -12,1.552 -12,1L-12,0C-12,-0.552 -12.448,-1 -13,-1C-13.553,-1 -14,-1.447 -14,-2C-14,-2.553 -13.553,-3 -13,-3C-12.448,-3 -12,-3.448 -12,-4C-12,-4.552 -12.448,-5 -13,-5C-13.771,-5 -14.468,-5.301 -15,-5.78C-15.532,-5.301 -16.229,-5 -17,-5C-17.553,-5 -18,-5.447 -18,-6C-18,-6.553 -17.553,-7 -17,-7C-16.448,-7 -16,-7.448 -16,-8C-16,-8.553 -15.553,-9 -15,-9C-14.447,-9 -14,-8.553 -14,-8C-14,-7.448 -13.552,-7 -13,-7C-12.647,-7 -12.314,-6.928 -12,-6.815L-12,-12.853ZM2,-2C2,-1.084 1.587,-0.263 0.938,0.288C1.597,1.002 2,1.955 2,3L2,4.002C2,5.07 1.584,6.075 0.828,6.83C0.215,7.443 -0.562,7.832 -1.405,7.957C-2.179,9.78 -3.976,11 -6,11L-7,11C-8.567,11 -10.039,10.282 -11,9.153C-11.961,10.282 -13.433,11 -15,11L-16,11C-18.024,11 -19.821,9.78 -20.595,7.957C-21.437,7.832 -22.215,7.443 -22.828,6.83C-23.584,6.075 -24,5.07 -24,4.002L-24,3C-24,1.973 -23.605,1.011 -22.938,0.287C-23.588,-0.264 -24,-1.084 -24,-2L-24,-4C-24,-5.304 -23.164,-6.416 -22,-6.829L-22,-8C-22,-10.206 -20.206,-12 -18,-12L-17,-12C-17,-13.654 -15.654,-15 -14,-15L-12.5,-15C-11.97,-15 -11.453,-14.854 -11,-14.587C-10.547,-14.854 -10.03,-15 -9.5,-15L-8,-15C-6.346,-15 -5,-13.654 -5,-12L-4,-12C-1.794,-12 0,-10.206 0,-8L0,-6.829C1.164,-6.416 2,-5.304 2,-4L2,-2ZM-4,-2C-4,-0.346 -5.346,1 -7,1C-7.553,1 -8,0.553 -8,0C-8,-0.553 -7.553,-1 -7,-1C-6.448,-1 -6,-1.448 -6,-2C-6,-2.553 -5.553,-3 -5,-3C-4.447,-3 -4,-2.553 -4,-2" style="fill:url(#_Linear1);fill-rule:nonzero;"/></g></g></g></g><defs><linearGradient id="_Linear1" x1="0" y1="0" x2="1" y2="0" gradientUnits="userSpaceOnUse" gradientTransform="matrix(26,0,0,26,-24,-2)"><stop offset="0" style="stop-color:#25e2f5;stop-opacity:1"/><stop offset="0.5" style="stop-color:#1c9aff;stop-opacity:1"/><stop offset="1" style="stop-color:#e062e9;stop-opacity:1"/></linearGradient></defs></svg>