<?xml version="1.0" encoding="UTF-8" standalone="no"?><!DOCTYPE svg PUBLIC "-//W3C//DTD SVG 1.1//EN" "http://www.w3.org/Graphics/SVG/1.1/DTD/svg11.dtd"><svg width="8534px" height="8534px" version="1.1" xmlns="http://www.w3.org/2000/svg" xmlns:xlink="http://www.w3.org/1999/xlink" xml:space="preserve" xmlns:serif="http://www.serif.com/" style="fill-rule:evenodd;clip-rule:evenodd;stroke-linejoin:round;stroke-miterlimit:2;"><g transform="matrix(4.16667,0,0,4.16667,0,0)"><g id="Actor"><g id="NCellProxy"><g id="Highlight" transform="matrix(76.2729,0,0,76.2729,1634.28,850.827)"><path d="M0,3.383L-3.904,4.429L-6.762,1.571L-5.716,-2.333L-1.812,-3.379L1.046,-0.52L0,3.383ZM-5.318,5.843L-6.364,9.747L-10.268,10.793L-13.126,7.936L-12.08,4.031L-8.176,2.986L-5.318,5.843ZM-15.455,-0.758L-14.409,-4.662L-10.505,-5.708L-7.647,-2.85L-8.693,1.054L-10.646,1.576L-12.597,2.1L-15.455,-0.758ZM3.506,5.476L1.932,3.901L3.127,-0.56C3.22,-0.905 3.121,-1.273 2.868,-1.526L-0.397,-4.793L0.195,-7.007C0.338,-7.54 0.021,-8.089 -0.512,-8.231C-1.043,-8.374 -1.594,-8.056 -1.736,-7.524L-2.329,-5.31L-6.233,-4.264L-9.091,-7.122L-8.643,-8.795C-8.5,-9.328 -8.816,-9.877 -9.35,-10.019C-9.882,-10.163 -10.432,-9.846 -10.574,-9.312L-11.022,-7.639L-15.484,-6.444C-15.829,-6.351 -16.099,-6.082 -16.191,-5.737L-17.387,-1.275L-19.06,-0.827C-19.593,-0.684 -19.909,-0.136 -19.767,0.398C-19.624,0.932 -19.075,1.249 -18.542,1.105L-16.869,0.656L-14.012,3.514L-15.058,7.418L-16.73,7.866C-17.264,8.009 -17.58,8.558 -17.437,9.091C-17.295,9.625 -16.744,9.942 -16.213,9.798L-14.54,9.35L-11.273,12.615C-11.178,12.711 -11.065,12.784 -10.944,12.834C-10.823,12.883 -10.695,12.908 -10.566,12.908C-10.48,12.908 -10.394,12.898 -10.308,12.874L-5.847,11.679L-4.271,13.253C-4.076,13.448 -3.82,13.546 -3.564,13.546C-3.309,13.546 -3.053,13.448 -2.857,13.253C-2.467,12.862 -2.467,12.23 -2.857,11.839L-4.433,10.265L-3.387,6.361L0.518,5.315L2.092,6.89C2.482,7.28 3.115,7.28 3.506,6.89C3.896,6.499 3.896,5.866 3.506,5.476" style="fill:#fff;fill-rule:nonzero;"/></g><g id="Shadow" transform="matrix(76.2729,0,0,76.2729,1634.28,930.827)"><path d="M0,3.383L-3.904,4.429L-6.762,1.571L-5.716,-2.333L-1.812,-3.379L1.046,-0.52L0,3.383ZM-5.318,5.843L-6.364,9.747L-10.268,10.793L-13.126,7.936L-12.08,4.031L-8.176,2.986L-5.318,5.843ZM-15.455,-0.758L-14.409,-4.662L-10.505,-5.708L-7.647,-2.85L-8.693,1.054L-10.646,1.576L-12.597,2.1L-15.455,-0.758ZM3.506,5.476L1.932,3.901L3.127,-0.56C3.22,-0.905 3.121,-1.273 2.868,-1.526L-0.397,-4.793L0.195,-7.007C0.338,-7.54 0.021,-8.089 -0.512,-8.231C-1.043,-8.374 -1.594,-8.056 -1.736,-7.524L-2.329,-5.31L-6.233,-4.264L-9.091,-7.122L-8.643,-8.795C-8.5,-9.328 -8.816,-9.877 -9.35,-10.019C-9.882,-10.163 -10.432,-9.846 -10.574,-9.312L-11.022,-7.639L-15.484,-6.444C-15.829,-6.351 -16.099,-6.082 -16.191,-5.737L-17.387,-1.275L-19.06,-0.827C-19.593,-0.684 -19.909,-0.136 -19.767,0.398C-19.624,0.932 -19.075,1.249 -18.542,1.105L-16.869,0.656L-14.012,3.514L-15.058,7.418L-16.73,7.866C-17.264,8.009 -17.58,8.558 -17.437,9.091C-17.295,9.625 -16.744,9.942 -16.213,9.798L-14.54,9.35L-11.273,12.615C-11.178,12.711 -11.065,12.784 -10.944,12.834C-10.823,12.883 -10.695,12.908 -10.566,12.908C-10.48,12.908 -10.394,12.898 -10.308,12.874L-5.847,11.679L-4.271,13.253C-4.076,13.448 -3.82,13.546 -3.564,13.546C-3.309,13.546 -3.053,13.448 -2.857,13.253C-2.467,12.862 -2.467,12.23 -2.857,11.839L-4.433,10.265L-3.387,6.361L0.518,5.315L2.092,6.89C2.482,7.28 3.115,7.28 3.506,6.89C3.896,6.499 3.896,5.866 3.506,5.476" style="fill:#363636;fill-rule:nonzero;"/></g><g id="Icon" transform="matrix(76.2729,0,0,76.2729,1634.28,890.817)"><path d="M0,3.383L-3.904,4.429L-6.762,1.571L-5.716,-2.333L-1.812,-3.379L1.046,-0.52L0,3.383ZM-5.318,5.843L-6.364,9.747L-10.268,10.793L-13.126,7.936L-12.08,4.031L-8.176,2.986L-5.318,5.843ZM-15.455,-0.758L-14.409,-4.662L-10.505,-5.708L-7.647,-2.85L-8.693,1.054L-10.646,1.576L-12.597,2.1L-15.455,-0.758ZM3.506,5.476L1.932,3.901L3.127,-0.56C3.22,-0.905 3.121,-1.273 2.868,-1.526L-0.397,-4.793L0.195,-7.007C0.338,-7.54 0.021,-8.089 -0.512,-8.231C-1.043,-8.374 -1.594,-8.056 -1.736,-7.524L-2.329,-5.31L-6.233,-4.264L-9.091,-7.122L-8.643,-8.795C-8.5,-9.328 -8.816,-9.877 -9.35,-10.019C-9.882,-10.163 -10.432,-9.846 -10.574,-9.312L-11.022,-7.639L-15.484,-6.444C-15.829,-6.351 -16.099,-6.082 -16.191,-5.737L-17.387,-1.275L-19.06,-0.827C-19.593,-0.684 -19.909,-0.136 -19.767,0.398C-19.624,0.932 -19.075,1.249 -18.542,1.105L-16.869,0.656L-14.012,3.514L-15.058,7.418L-16.73,7.866C-17.264,8.009 -17.58,8.558 -17.437,9.091C-17.295,9.625 -16.744,9.942 -16.213,9.798L-14.54,9.35L-11.273,12.615C-11.178,12.711 -11.065,12.784 -10.944,12.834C-10.823,12.883 -10.695,12.908 -10.566,12.908C-10.48,12.908 -10.394,12.898 -10.308,12.874L-5.847,11.679L-4.271,13.253C-4.076,13.448 -3.82,13.546 -3.564,13.546C-3.309,13.546 -3.053,13.448 -2.857,13.253C-2.467,12.862 -2.467,12.23 -2.857,11.839L-4.433,10.265L-3.387,6.361L0.518,5.315L2.092,6.89C2.482,7.28 3.115,7.28 3.506,6.89C3.896,6.499 3.896,5.866 3.506,5.476" style="fill:url(#_Linear1);fill-rule:nonzero;"/></g></g></g></g><defs><linearGradient id="_Linear1" x1="0" y1="0" x2="1" y2="0" gradientUnits="userSpaceOnUse" gradientTransform="matrix(23.5995,0,0,23.5997,-19.801,1.74614)"><stop offset="0" style="stop-color:#25e2f5;stop-opacity:1"/><stop offset="0.5" style="stop-color:#1c9aff;stop-opacity:1"/><stop offset="1" style="stop-color:#e062e9;stop-opacity:1"/></linearGradient></defs></svg>