<?xml version="1.0" encoding="UTF-8" standalone="no"?><!DOCTYPE svg PUBLIC "-//W3C//DTD SVG 1.1//EN" "http://www.w3.org/Graphics/SVG/1.1/DTD/svg11.dtd"><svg width="2048px" height="2048px" version="1.1" xmlns="http://www.w3.org/2000/svg" xmlns:xlink="http://www.w3.org/1999/xlink" xml:space="preserve" xmlns:serif="http://www.serif.com/" style="fill-rule:evenodd;clip-rule:evenodd;stroke-linejoin:round;stroke-miterlimit:2;"><g id="Actor" transform="matrix(14.6545,0,0,14.6545,-26529.6,-6344)"><g id="NProcGenVolume"><g id="Highlight" transform="matrix(4.16667,0,0,4.16667,1884.37,494.507)"><path d="M0,2.613l0,11l9.515,-5.709c0.3,-0.181 0.485,-0.506 0.485,-0.857l0,-10.434l-10,6Zm-0.485,-13.424c-0.317,-0.189 -0.713,-0.189 -1.03,0l-9.485,5.692l10,6l10,-6l-9.485,-5.692Zm-11.515,7.424l10,6l0,11l-9.515,-5.709c-0.3,-0.181 -0.485,-0.506 -0.485,-0.857l0,-10.434Z" style="fill:#fff;fill-rule:nonzero;"/></g><g id="Shadow" transform="matrix(4.16667,0,0,4.16667,1884.37,499.966)"><path d="M0,2.613l0,11l9.515,-5.709c0.3,-0.181 0.485,-0.506 0.485,-0.857l0,-10.434l-10,6Zm-0.485,-13.424c-0.317,-0.189 -0.713,-0.189 -1.03,0l-9.485,5.692l10,6l10,-6l-9.485,-5.692Zm-11.515,7.424l10,6l0,11l-9.515,-5.709c-0.3,-0.181 -0.485,-0.506 -0.485,-0.857l0,-10.434Z" style="fill:#363636;fill-rule:nonzero;"/></g><g id="Icon" transform="matrix(4.16667,0,0,4.16667,1884.37,497.237)"><path d="M0,2.613l0,11l9.515,-5.709c0.3,-0.181 0.485,-0.506 0.485,-0.857l0,-10.434l-10,6Zm-0.485,-13.424c-0.317,-0.189 -0.713,-0.189 -1.03,0l-9.485,5.692l10,6l10,-6l-9.485,-5.692Zm-11.515,7.424l10,6l0,11l-9.515,-5.709c-0.3,-0.181 -0.485,-0.506 -0.485,-0.857l0,-10.434Z" style="fill:url(#_Linear1);fill-rule:nonzero;"/></g></g></g><g id="ActorComponent"></g><defs><linearGradient id="_Linear1" x1="0" y1="0" x2="1" y2="0" gradientUnits="userSpaceOnUse" gradientTransform="matrix(22,0,0,24.5657,-12,1.33013)"><stop offset="0" style="stop-color:#25e2f5;stop-opacity:1"/><stop offset="0.5" style="stop-color:#1c9aff;stop-opacity:1"/><stop offset="1" style="stop-color:#e062e9;stop-opacity:1"/></linearGradient></defs></svg>