<?xml version="1.0" encoding="UTF-8" standalone="no"?><!DOCTYPE svg PUBLIC "-//W3C//DTD SVG 1.1//EN" "http://www.w3.org/Graphics/SVG/1.1/DTD/svg11.dtd"><svg width="8534px" height="8534px" version="1.1" xmlns="http://www.w3.org/2000/svg" xmlns:xlink="http://www.w3.org/1999/xlink" xml:space="preserve" xmlns:serif="http://www.serif.com/" style="fill-rule:evenodd;clip-rule:evenodd;stroke-linejoin:round;stroke-miterlimit:2;"><g transform="matrix(4.16667,0,0,4.16667,0,0)"><g id="DataAsset"><g id="Set"><g id="Highlight" transform="matrix(72.9167,0,0,73.0435,1753.17,1678.91)"><path d="M0,-19L-13,-19L-14.414,-20.414C-14.789,-20.79 -15.298,-21 -15.828,-21L-20,-21C-21.104,-21 -22,-20.104 -22,-19L-22,-16L2,-16L2,-17C2,-18.104 1.104,-19 0,-19M-22,-14L2,-14L2,0C2,1.104 1.104,2 0,2L-20,2C-21.104,2 -22,1.104 -22,0L-22,-14Z" style="fill:#fff;fill-rule:nonzero;"/></g><g id="Shadow" transform="matrix(72.9167,0,0,73.0435,1753.17,1758.91)"><path d="M0,-19L-13,-19L-14.414,-20.414C-14.789,-20.79 -15.298,-21 -15.828,-21L-20,-21C-21.104,-21 -22,-20.104 -22,-19L-22,-16L2,-16L2,-17C2,-18.104 1.104,-19 0,-19M-22,-14L2,-14L2,0C2,1.104 1.104,2 0,2L-20,2C-21.104,2 -22,1.104 -22,0L-22,-14Z" style="fill:#363636;fill-rule:nonzero;"/></g><g id="Icon" transform="matrix(72.9167,0,0,73.0435,1753.17,1717.91)"><path d="M0,-19L-13,-19L-14.414,-20.414C-14.789,-20.79 -15.298,-21 -15.828,-21L-20,-21C-21.104,-21 -22,-20.104 -22,-19L-22,-16L2,-16L2,-17C2,-18.104 1.104,-19 0,-19M-22,-14L2,-14L2,0C2,1.104 1.104,2 0,2L-20,2C-21.104,2 -22,1.104 -22,0L-22,-14Z" style="fill:url(#_Linear1);fill-rule:nonzero;"/></g></g><g id="NCell"><g id="Shadow1" serif:id="Shadow" transform="matrix(31.1139,0,0,31.16,1351.73,1244.28)"><path d="M0,3.373L-3,5.06L-6,3.373L-6,0.043L-3,-1.645L0,0.043L0,3.373ZM-4,10.373L-7,12.061L-10,10.373L-10,7.043L-7,5.355L-4,7.043L-4,10.373ZM-15,12.061L-18,10.373L-18,7.043L-15,5.355L-12,7.043L-12,10.373L-15,12.061ZM-22,0.043L-19,-1.645L-16,0.043L-16,3.373L-19,5.06L-22,3.373L-22,0.043ZM-18,-6.957L-15,-8.645L-12,-6.957L-12,-3.627L-15,-1.939L-18,-3.627L-18,-6.957ZM-7,-8.645L-4,-6.957L-4,-3.627L-7,-1.939L-10,-3.627L-10,-6.957L-7,-8.645ZM-8,3.373L-11,5.06L-14,3.373L-14,0.043L-11,-1.645L-8,0.043L-8,3.373ZM1.49,-1.413L-2,-3.376L-2,-7.542C-2,-7.903 -2.195,-8.236 -2.51,-8.413L-6.51,-10.663C-6.814,-10.835 -7.186,-10.835 -7.49,-10.663L-11,-8.689L-14.51,-10.663C-14.814,-10.835 -15.186,-10.835 -15.49,-10.663L-19.49,-8.413C-19.805,-8.236 -20,-7.903 -20,-7.542L-20,-3.376L-23.49,-1.413C-23.805,-1.236 -24,-0.903 -24,-0.542L-24,3.958C-24,4.319 -23.805,4.652 -23.49,4.829L-20,6.792L-20,10.958C-20,11.319 -19.805,11.652 -19.49,11.829L-15.49,14.079C-15.338,14.165 -15.169,14.208 -15,14.208C-14.831,14.208 -14.662,14.165 -14.51,14.079L-11,12.104L-7.49,14.079C-7.338,14.165 -7.169,14.208 -7,14.208C-6.831,14.208 -6.662,14.165 -6.51,14.079L-2.51,11.829C-2.195,11.652 -2,11.319 -2,10.958L-2,6.792L1.49,4.829C1.805,4.652 2,4.319 2,3.958L2,-0.542C2,-0.903 1.805,-1.236 1.49,-1.413" style="fill:#363636;fill-rule:nonzero;"/></g><g id="Icon1" serif:id="Icon" transform="matrix(31.1139,0,0,31.16,1351.73,1204.28)"><path d="M0,3.373L-3,5.06L-6,3.373L-6,0.043L-3,-1.645L0,0.043L0,3.373ZM-4,10.373L-7,12.061L-10,10.373L-10,7.043L-7,5.355L-4,7.043L-4,10.373ZM-15,12.061L-18,10.373L-18,7.043L-15,5.355L-12,7.043L-12,10.373L-15,12.061ZM-22,0.043L-19,-1.645L-16,0.043L-16,3.373L-19,5.06L-22,3.373L-22,0.043ZM-18,-6.957L-15,-8.645L-12,-6.957L-12,-3.627L-15,-1.939L-18,-3.627L-18,-6.957ZM-7,-8.645L-4,-6.957L-4,-3.627L-7,-1.939L-10,-3.627L-10,-6.957L-7,-8.645ZM-8,3.373L-11,5.06L-14,3.373L-14,0.043L-11,-1.645L-8,0.043L-8,3.373ZM1.49,-1.413L-2,-3.376L-2,-7.542C-2,-7.903 -2.195,-8.236 -2.51,-8.413L-6.51,-10.663C-6.814,-10.835 -7.186,-10.835 -7.49,-10.663L-11,-8.689L-14.51,-10.663C-14.814,-10.835 -15.186,-10.835 -15.49,-10.663L-19.49,-8.413C-19.805,-8.236 -20,-7.903 -20,-7.542L-20,-3.376L-23.49,-1.413C-23.805,-1.236 -24,-0.903 -24,-0.542L-24,3.958C-24,4.319 -23.805,4.652 -23.49,4.829L-20,6.792L-20,10.958C-20,11.319 -19.805,11.652 -19.49,11.829L-15.49,14.079C-15.338,14.165 -15.169,14.208 -15,14.208C-14.831,14.208 -14.662,14.165 -14.51,14.079L-11,12.104L-7.49,14.079C-7.338,14.165 -7.169,14.208 -7,14.208C-6.831,14.208 -6.662,14.165 -6.51,14.079L-2.51,11.829C-2.195,11.652 -2,11.319 -2,10.958L-2,6.792L1.49,4.829C1.805,4.652 2,4.319 2,3.958L2,-0.542C2,-0.903 1.805,-1.236 1.49,-1.413" style="fill:#fff;fill-rule:nonzero;"/></g></g></g></g><defs><linearGradient id="_Linear1" x1="0" y1="0" x2="1" y2="0" gradientUnits="userSpaceOnUse" gradientTransform="matrix(24,0,0,23,-22,-9.5)"><stop offset="0" style="stop-color:#25e2f5;stop-opacity:1"/><stop offset="0.5" style="stop-color:#1c9aff;stop-opacity:1"/><stop offset="1" style="stop-color:#e062e9;stop-opacity:1"/></linearGradient></defs></svg>