<?xml version="1.0" encoding="UTF-8" standalone="no"?><!DOCTYPE svg PUBLIC "-//W3C//DTD SVG 1.1//EN" "http://www.w3.org/Graphics/SVG/1.1/DTD/svg11.dtd"><svg width="2048px" height="2048px" version="1.1" xmlns="http://www.w3.org/2000/svg" xmlns:xlink="http://www.w3.org/1999/xlink" xml:space="preserve" xmlns:serif="http://www.serif.com/" style="fill-rule:evenodd;clip-rule:evenodd;stroke-linejoin:round;stroke-miterlimit:2;"><g id="ActorComponent" transform="matrix(1.02778,0,0,1.02778,-118.539,61.6506)"><g id="NBoneComponent"><g id="Highlight" transform="matrix(75.2859,0,0,75.2859,588.854,1019.76)"><path d="M4.642,2.674l-1.602,1.603l-0,2.172c-0,1.104 -0.895,2 -2,2c-1.104,-0 -2,-0.896 -2,-2l-0,-1l-1,-0c-1.104,-0 -2,-0.896 -2,-2c-0,-1.105 0.896,-2 2,-2l2.172,-0l0.684,-0.685c0.116,-0.159 0.272,-0.318 0.474,-0.474l0.701,-0.701c-0.067,-0.037 -0.127,-0.087 -0.176,-0.148l-0.426,-0.535c-0.673,0.229 -1.446,0.034 -1.914,-0.554c-0.594,-0.747 -0.469,-1.838 0.278,-2.432c0.747,-0.594 1.838,-0.469 2.432,0.278c0.468,0.588 0.483,1.386 0.108,1.989l0.276,0.349l0.468,0.053c0.52,-0.419 1.24,-0.971 2.044,-1.559c-0.038,-0.029 -0.073,-0.063 -0.105,-0.103l-1.143,-1.438c-0.673,0.23 -1.447,0.035 -1.914,-0.553c-0.594,-0.748 -0.469,-1.839 0.278,-2.433c0.747,-0.594 1.838,-0.469 2.432,0.278c0.467,0.588 0.483,1.386 0.107,1.99l1.144,1.438c0.043,0.055 0.075,0.115 0.096,0.177c0.631,-0.447 1.286,-0.895 1.916,-1.303l0.097,-0.856l-0.276,-0.348c-0.673,0.23 -1.447,0.035 -1.914,-0.554c-0.594,-0.747 -0.47,-1.838 0.277,-2.432c0.747,-0.594 1.839,-0.469 2.432,0.278c0.468,0.588 0.484,1.386 0.108,1.99l0.425,0.535c0.086,0.108 0.131,0.243 0.125,0.38l1.603,-1.603l0,-2.172c0,-1.104 0.895,-2 2,-2c1.104,0 2,0.896 2,2l0,1l1,0c1.104,0 2,0.896 2,2c0,1.105 -0.896,2 -2,2l-2.172,0l-0.685,0.685c-0.115,0.159 -0.271,0.318 -0.474,0.474l-0.701,0.701c0.068,0.036 0.128,0.087 0.177,0.148l0.425,0.535c0.673,-0.229 1.447,-0.034 1.914,0.554c0.594,0.747 0.47,1.838 -0.278,2.432c-0.747,0.594 -1.838,0.469 -2.432,-0.278c-0.467,-0.588 -0.483,-1.386 -0.107,-1.989l-0.277,-0.349l-0.468,-0.053c-0.52,0.419 -1.24,0.971 -2.044,1.559c0.038,0.029 0.074,0.063 0.105,0.103l1.144,1.438c0.673,-0.23 1.446,-0.035 1.914,0.553c0.594,0.748 0.469,1.839 -0.278,2.433c-0.747,0.593 -1.838,0.469 -2.432,-0.278c-0.468,-0.588 -0.483,-1.386 -0.108,-1.99l-1.143,-1.438c-0.044,-0.055 -0.076,-0.115 -0.096,-0.177c-0.632,0.447 -1.286,0.895 -1.916,1.303l-0.098,0.856l0.277,0.348c0.673,-0.23 1.447,-0.035 1.914,0.554c0.594,0.747 0.469,1.838 -0.278,2.432c-0.747,0.594 -1.838,0.469 -2.432,-0.278c-0.467,-0.588 -0.483,-1.386 -0.107,-1.99l-0.426,-0.535c-0.086,-0.108 -0.13,-0.243 -0.125,-0.38Zm2.232,-10.877c-0.249,0.198 -0.29,0.561 -0.092,0.81c0.198,0.25 0.561,0.291 0.811,0.093c0.249,-0.198 0.29,-0.561 0.092,-0.811c-0.198,-0.249 -0.561,-0.291 -0.811,-0.092Zm-6.323,5.026c-0.249,0.199 -0.291,0.562 -0.092,0.811c0.198,0.249 0.561,0.291 0.81,0.093c0.25,-0.198 0.291,-0.562 0.093,-0.811c-0.198,-0.249 -0.562,-0.291 -0.811,-0.093Zm2.444,-3.416c-0.25,0.198 -0.291,0.561 -0.093,0.81c0.198,0.25 0.561,0.291 0.811,0.093c0.249,-0.198 0.291,-0.561 0.092,-0.811c-0.198,-0.249 -0.561,-0.291 -0.81,-0.092Zm10.342,6.52c0.25,-0.199 0.291,-0.562 0.093,-0.811c-0.198,-0.249 -0.561,-0.291 -0.811,-0.093c-0.249,0.198 -0.291,0.562 -0.092,0.811c0.198,0.249 0.561,0.291 0.81,0.093Zm-2.443,3.416c0.249,-0.198 0.291,-0.561 0.092,-0.81c-0.198,-0.25 -0.561,-0.291 -0.81,-0.093c-0.25,0.198 -0.291,0.561 -0.093,0.811c0.198,0.249 0.562,0.29 0.811,0.092Zm-3.88,1.61c0.249,-0.198 0.291,-0.561 0.093,-0.81c-0.198,-0.25 -0.562,-0.291 -0.811,-0.093c-0.249,0.198 -0.291,0.561 -0.093,0.811c0.199,0.249 0.562,0.291 0.811,0.092Z" style="fill:#fff;"/></g><g id="Shadow" transform="matrix(75.2859,0,0,75.2859,588.854,1097.6)"><path d="M4.642,2.674l-1.602,1.603l-0,2.172c-0,1.104 -0.895,2 -2,2c-1.104,-0 -2,-0.896 -2,-2l-0,-1l-1,-0c-1.104,-0 -2,-0.896 -2,-2c-0,-1.105 0.896,-2 2,-2l2.172,-0l0.684,-0.685c0.116,-0.159 0.272,-0.318 0.474,-0.474l0.701,-0.701c-0.067,-0.037 -0.127,-0.087 -0.176,-0.148l-0.426,-0.535c-0.673,0.229 -1.446,0.034 -1.914,-0.554c-0.594,-0.747 -0.469,-1.838 0.278,-2.432c0.747,-0.594 1.838,-0.469 2.432,0.278c0.468,0.588 0.483,1.386 0.108,1.989l0.276,0.349l0.468,0.053c0.52,-0.419 1.24,-0.971 2.044,-1.559c-0.038,-0.029 -0.073,-0.063 -0.105,-0.103l-1.143,-1.438c-0.673,0.23 -1.447,0.035 -1.914,-0.553c-0.594,-0.748 -0.469,-1.839 0.278,-2.433c0.747,-0.594 1.838,-0.469 2.432,0.278c0.467,0.588 0.483,1.386 0.107,1.99l1.144,1.438c0.043,0.055 0.075,0.115 0.096,0.177c0.631,-0.447 1.286,-0.895 1.916,-1.303l0.097,-0.856l-0.276,-0.348c-0.673,0.23 -1.447,0.035 -1.914,-0.554c-0.594,-0.747 -0.47,-1.838 0.277,-2.432c0.747,-0.594 1.839,-0.469 2.432,0.278c0.468,0.588 0.484,1.386 0.108,1.99l0.425,0.535c0.086,0.108 0.131,0.243 0.125,0.38l1.603,-1.603l0,-2.172c0,-1.104 0.895,-2 2,-2c1.104,0 2,0.896 2,2l0,1l1,0c1.104,0 2,0.896 2,2c0,1.105 -0.896,2 -2,2l-2.172,0l-0.685,0.685c-0.115,0.159 -0.271,0.318 -0.474,0.474l-0.701,0.701c0.068,0.036 0.128,0.087 0.177,0.148l0.425,0.535c0.673,-0.229 1.447,-0.034 1.914,0.554c0.594,0.747 0.47,1.838 -0.278,2.432c-0.747,0.594 -1.838,0.469 -2.432,-0.278c-0.467,-0.588 -0.483,-1.386 -0.107,-1.989l-0.277,-0.349l-0.468,-0.053c-0.52,0.419 -1.24,0.971 -2.044,1.559c0.038,0.029 0.074,0.063 0.105,0.103l1.144,1.438c0.673,-0.23 1.446,-0.035 1.914,0.553c0.594,0.748 0.469,1.839 -0.278,2.433c-0.747,0.593 -1.838,0.469 -2.432,-0.278c-0.468,-0.588 -0.483,-1.386 -0.108,-1.99l-1.143,-1.438c-0.044,-0.055 -0.076,-0.115 -0.096,-0.177c-0.632,0.447 -1.286,0.895 -1.916,1.303l-0.098,0.856l0.277,0.348c0.673,-0.23 1.447,-0.035 1.914,0.554c0.594,0.747 0.469,1.838 -0.278,2.432c-0.747,0.594 -1.838,0.469 -2.432,-0.278c-0.467,-0.588 -0.483,-1.386 -0.107,-1.99l-0.426,-0.535c-0.086,-0.108 -0.13,-0.243 -0.125,-0.38Zm2.232,-10.877c-0.249,0.198 -0.29,0.561 -0.092,0.81c0.198,0.25 0.561,0.291 0.811,0.093c0.249,-0.198 0.29,-0.561 0.092,-0.811c-0.198,-0.249 -0.561,-0.291 -0.811,-0.092Zm-6.323,5.026c-0.249,0.199 -0.291,0.562 -0.092,0.811c0.198,0.249 0.561,0.291 0.81,0.093c0.25,-0.198 0.291,-0.562 0.093,-0.811c-0.198,-0.249 -0.562,-0.291 -0.811,-0.093Zm2.444,-3.416c-0.25,0.198 -0.291,0.561 -0.093,0.81c0.198,0.25 0.561,0.291 0.811,0.093c0.249,-0.198 0.291,-0.561 0.092,-0.811c-0.198,-0.249 -0.561,-0.291 -0.81,-0.092Zm10.342,6.52c0.25,-0.199 0.291,-0.562 0.093,-0.811c-0.198,-0.249 -0.561,-0.291 -0.811,-0.093c-0.249,0.198 -0.291,0.562 -0.092,0.811c0.198,0.249 0.561,0.291 0.81,0.093Zm-2.443,3.416c0.249,-0.198 0.291,-0.561 0.092,-0.81c-0.198,-0.25 -0.561,-0.291 -0.81,-0.093c-0.25,0.198 -0.291,0.561 -0.093,0.811c0.198,0.249 0.562,0.29 0.811,0.092Zm-3.88,1.61c0.249,-0.198 0.291,-0.561 0.093,-0.81c-0.198,-0.25 -0.562,-0.291 -0.811,-0.093c-0.249,0.198 -0.291,0.561 -0.093,0.811c0.199,0.249 0.562,0.291 0.811,0.092Z" style="fill:#363636;"/></g><g id="Icon" transform="matrix(75.2859,0,0,75.2859,588.854,1058.68)"><path d="M4.642,2.674l-1.602,1.603l-0,2.172c-0,1.104 -0.895,2 -2,2c-1.104,-0 -2,-0.896 -2,-2l-0,-1l-1,-0c-1.104,-0 -2,-0.896 -2,-2c-0,-1.105 0.896,-2 2,-2l2.172,-0l0.684,-0.685c0.116,-0.159 0.272,-0.318 0.474,-0.474l0.701,-0.701c-0.067,-0.037 -0.127,-0.087 -0.176,-0.148l-0.426,-0.535c-0.673,0.229 -1.446,0.034 -1.914,-0.554c-0.594,-0.747 -0.469,-1.838 0.278,-2.432c0.747,-0.594 1.838,-0.469 2.432,0.278c0.468,0.588 0.483,1.386 0.108,1.989l0.276,0.349l0.468,0.053c0.52,-0.419 1.24,-0.971 2.044,-1.559c-0.038,-0.029 -0.073,-0.063 -0.105,-0.103l-1.143,-1.438c-0.673,0.23 -1.447,0.035 -1.914,-0.553c-0.594,-0.748 -0.469,-1.839 0.278,-2.433c0.747,-0.594 1.838,-0.469 2.432,0.278c0.467,0.588 0.483,1.386 0.107,1.99l1.144,1.438c0.043,0.055 0.075,0.115 0.096,0.177c0.631,-0.447 1.286,-0.895 1.916,-1.303l0.097,-0.856l-0.276,-0.348c-0.673,0.23 -1.447,0.035 -1.914,-0.554c-0.594,-0.747 -0.47,-1.838 0.277,-2.432c0.747,-0.594 1.839,-0.469 2.432,0.278c0.468,0.588 0.484,1.386 0.108,1.99l0.425,0.535c0.086,0.108 0.131,0.243 0.125,0.38l1.603,-1.603l0,-2.172c0,-1.104 0.895,-2 2,-2c1.104,0 2,0.896 2,2l0,1l1,0c1.104,0 2,0.896 2,2c0,1.105 -0.896,2 -2,2l-2.172,0l-0.685,0.685c-0.115,0.159 -0.271,0.318 -0.474,0.474l-0.701,0.701c0.068,0.036 0.128,0.087 0.177,0.148l0.425,0.535c0.673,-0.229 1.447,-0.034 1.914,0.554c0.594,0.747 0.47,1.838 -0.278,2.432c-0.747,0.594 -1.838,0.469 -2.432,-0.278c-0.467,-0.588 -0.483,-1.386 -0.107,-1.989l-0.277,-0.349l-0.468,-0.053c-0.52,0.419 -1.24,0.971 -2.044,1.559c0.038,0.029 0.074,0.063 0.105,0.103l1.144,1.438c0.673,-0.23 1.446,-0.035 1.914,0.553c0.594,0.748 0.469,1.839 -0.278,2.433c-0.747,0.593 -1.838,0.469 -2.432,-0.278c-0.468,-0.588 -0.483,-1.386 -0.108,-1.99l-1.143,-1.438c-0.044,-0.055 -0.076,-0.115 -0.096,-0.177c-0.632,0.447 -1.286,0.895 -1.916,1.303l-0.098,0.856l0.277,0.348c0.673,-0.23 1.447,-0.035 1.914,0.554c0.594,0.747 0.469,1.838 -0.278,2.432c-0.747,0.594 -1.838,0.469 -2.432,-0.278c-0.467,-0.588 -0.483,-1.386 -0.107,-1.99l-0.426,-0.535c-0.086,-0.108 -0.13,-0.243 -0.125,-0.38Zm2.232,-10.877c-0.249,0.198 -0.29,0.561 -0.092,0.81c0.198,0.25 0.561,0.291 0.811,0.093c0.249,-0.198 0.29,-0.561 0.092,-0.811c-0.198,-0.249 -0.561,-0.291 -0.811,-0.092Zm-6.323,5.026c-0.249,0.199 -0.291,0.562 -0.092,0.811c0.198,0.249 0.561,0.291 0.81,0.093c0.25,-0.198 0.291,-0.562 0.093,-0.811c-0.198,-0.249 -0.562,-0.291 -0.811,-0.093Zm2.444,-3.416c-0.25,0.198 -0.291,0.561 -0.093,0.81c0.198,0.25 0.561,0.291 0.811,0.093c0.249,-0.198 0.291,-0.561 0.092,-0.811c-0.198,-0.249 -0.561,-0.291 -0.81,-0.092Zm10.342,6.52c0.25,-0.199 0.291,-0.562 0.093,-0.811c-0.198,-0.249 -0.561,-0.291 -0.811,-0.093c-0.249,0.198 -0.291,0.562 -0.092,0.811c0.198,0.249 0.561,0.291 0.81,0.093Zm-2.443,3.416c0.249,-0.198 0.291,-0.561 0.092,-0.81c-0.198,-0.25 -0.561,-0.291 -0.81,-0.093c-0.25,0.198 -0.291,0.561 -0.093,0.811c0.198,0.249 0.562,0.29 0.811,0.092Zm-3.88,1.61c0.249,-0.198 0.291,-0.561 0.093,-0.81c-0.198,-0.25 -0.562,-0.291 -0.811,-0.093c-0.249,0.198 -0.291,0.561 -0.093,0.811c0.199,0.249 0.562,0.291 0.811,0.092Z" style="fill:url(#_Linear1);"/></g></g></g><defs><linearGradient id="_Linear1" x1="0" y1="0" x2="1" y2="0" gradientUnits="userSpaceOnUse" gradientTransform="matrix(21.8095,0,0,20.148,-3.96046,-1.62501)"><stop offset="0" style="stop-color:#25e2f5;stop-opacity:1"/><stop offset="0.5" style="stop-color:#1c9aff;stop-opacity:1"/><stop offset="1" style="stop-color:#e062e9;stop-opacity:1"/></linearGradient></defs></svg>