<?xml version="1.0" encoding="UTF-8" standalone="no"?><!DOCTYPE svg PUBLIC "-//W3C//DTD SVG 1.1//EN" "http://www.w3.org/Graphics/SVG/1.1/DTD/svg11.dtd"><svg width="2048px" height="2048px" version="1.1" xmlns="http://www.w3.org/2000/svg" xmlns:xlink="http://www.w3.org/1999/xlink" xml:space="preserve" xmlns:serif="http://www.serif.com/" style="fill-rule:evenodd;clip-rule:evenodd;stroke-linejoin:round;stroke-miterlimit:2;"><g id="Actor"></g><g id="NActorPoolSpawnerComponent" transform="matrix(1.5873,0,0,1.5873,-601.397,-1067.67)"><g id="ActorComponent"><g id="NActorPoolSpawnerComponent1" serif:id="NActorPoolSpawnerComponent"><g id="Highlight" transform="matrix(34.7756,0,0,34.8752,1093.55,1576.99)"><path d="M0,-16.156l-4,-0c-1.657,-0 -3,1.343 -3,3l0,8c0,0.473 0.328,0.87 0.771,0.974c0.134,0.031 0.229,0.15 0.229,0.288l0,8.182c0,0.725 0.49,1.39 1.202,1.527c0.959,0.185 1.798,-0.545 1.798,-1.471l0,-7.447c0,-0.498 0.341,-0.959 0.832,-1.039c0.627,-0.102 1.168,0.379 1.168,0.986l0,7.444c0,0.725 0.49,1.39 1.202,1.527c0.959,0.185 1.798,-0.545 1.798,-1.471l0,-8.238c0,-0.138 0.095,-0.257 0.229,-0.288c0.443,-0.104 0.771,-0.501 0.771,-0.974l0,-8c0,-1.657 -1.343,-3 -3,-3m7.5,-2.5c0,-1.381 -1.119,-2.5 -2.5,-2.5c-1.381,-0 -2.5,1.119 -2.5,2.5c0,0.597 0.218,1.137 0.566,1.567c0.209,0.163 0.406,0.34 0.586,0.533c0.39,0.251 0.851,0.4 1.348,0.4c1.381,-0 2.5,-1.119 2.5,-2.5m-0.5,3.5l-2.426,-0c0.27,0.614 0.426,1.288 0.426,2l0,8c0.553,-0 1,0.448 1,1l0,7.444c0,0.725 0.49,1.39 1.202,1.527c0.959,0.185 1.798,-0.545 1.798,-1.471l0,-8.238c0,-0.138 0.095,-0.257 0.229,-0.288c0.443,-0.104 0.771,-0.501 0.771,-0.974l0,-6c0,-1.657 -1.343,-3 -3,-3m-21,3l0,6c0,0.473 0.328,0.87 0.771,0.974c0.134,0.031 0.229,0.15 0.229,0.288l0,8.182c0,0.725 0.49,1.39 1.202,1.527c0.959,0.185 1.798,-0.545 1.798,-1.471l0,-7.5c0,-0.552 0.447,-1 1,-1l0,-8c0,-0.712 0.156,-1.386 0.426,-2l-2.426,-0c-1.657,-0 -3,1.343 -3,3m5,-9c-1.381,-0 -2.5,1.119 -2.5,2.5c0,1.381 1.119,2.5 2.5,2.5c0.497,-0 0.958,-0.149 1.348,-0.4c0.179,-0.193 0.377,-0.37 0.586,-0.533c0.348,-0.43 0.566,-0.97 0.566,-1.567c0,-1.381 -1.119,-2.5 -2.5,-2.5m4.5,1.5c0,-1.381 1.119,-2.5 2.5,-2.5c1.381,-0 2.5,1.119 2.5,2.5c0,1.381 -1.119,2.5 -2.5,2.5c-1.381,-0 -2.5,-1.119 -2.5,-2.5" style="fill:#fff;fill-rule:nonzero;"/></g><g id="Shadow" transform="matrix(34.7756,0,0,34.8752,1093.55,1627.39)"><path d="M0,-16.156l-4,-0c-1.657,-0 -3,1.343 -3,3l0,8c0,0.473 0.328,0.87 0.771,0.974c0.134,0.031 0.229,0.15 0.229,0.288l0,8.182c0,0.725 0.49,1.39 1.202,1.527c0.959,0.185 1.798,-0.545 1.798,-1.471l0,-7.447c0,-0.498 0.341,-0.959 0.832,-1.039c0.627,-0.102 1.168,0.379 1.168,0.986l0,7.444c0,0.725 0.49,1.39 1.202,1.527c0.959,0.185 1.798,-0.545 1.798,-1.471l0,-8.238c0,-0.138 0.095,-0.257 0.229,-0.288c0.443,-0.104 0.771,-0.501 0.771,-0.974l0,-8c0,-1.657 -1.343,-3 -3,-3m7.5,-2.5c0,-1.381 -1.119,-2.5 -2.5,-2.5c-1.381,-0 -2.5,1.119 -2.5,2.5c0,0.597 0.218,1.137 0.566,1.567c0.209,0.163 0.406,0.34 0.586,0.533c0.39,0.251 0.851,0.4 1.348,0.4c1.381,-0 2.5,-1.119 2.5,-2.5m-0.5,3.5l-2.426,-0c0.27,0.614 0.426,1.288 0.426,2l0,8c0.553,-0 1,0.448 1,1l0,7.444c0,0.725 0.49,1.39 1.202,1.527c0.959,0.185 1.798,-0.545 1.798,-1.471l0,-8.238c0,-0.138 0.095,-0.257 0.229,-0.288c0.443,-0.104 0.771,-0.501 0.771,-0.974l0,-6c0,-1.657 -1.343,-3 -3,-3m-21,3l0,6c0,0.473 0.328,0.87 0.771,0.974c0.134,0.031 0.229,0.15 0.229,0.288l0,8.182c0,0.725 0.49,1.39 1.202,1.527c0.959,0.185 1.798,-0.545 1.798,-1.471l0,-7.5c0,-0.552 0.447,-1 1,-1l0,-8c0,-0.712 0.156,-1.386 0.426,-2l-2.426,-0c-1.657,-0 -3,1.343 -3,3m5,-9c-1.381,-0 -2.5,1.119 -2.5,2.5c0,1.381 1.119,2.5 2.5,2.5c0.497,-0 0.958,-0.149 1.348,-0.4c0.179,-0.193 0.377,-0.37 0.586,-0.533c0.348,-0.43 0.566,-0.97 0.566,-1.567c0,-1.381 -1.119,-2.5 -2.5,-2.5m4.5,1.5c0,-1.381 1.119,-2.5 2.5,-2.5c1.381,-0 2.5,1.119 2.5,2.5c0,1.381 -1.119,2.5 -2.5,2.5c-1.381,-0 -2.5,-1.119 -2.5,-2.5" style="fill:#363636;fill-rule:nonzero;"/></g><g id="Icon" transform="matrix(34.7756,0,0,34.8752,1093.55,1602.19)"><path d="M0,-16.156l-4,-0c-1.657,-0 -3,1.343 -3,3l0,8c0,0.473 0.328,0.87 0.771,0.974c0.134,0.031 0.229,0.15 0.229,0.288l0,8.182c0,0.725 0.49,1.39 1.202,1.527c0.959,0.185 1.798,-0.545 1.798,-1.471l0,-7.447c0,-0.498 0.341,-0.959 0.832,-1.039c0.627,-0.102 1.168,0.379 1.168,0.986l0,7.444c0,0.725 0.49,1.39 1.202,1.527c0.959,0.185 1.798,-0.545 1.798,-1.471l0,-8.238c0,-0.138 0.095,-0.257 0.229,-0.288c0.443,-0.104 0.771,-0.501 0.771,-0.974l0,-8c0,-1.657 -1.343,-3 -3,-3m7.5,-2.5c0,-1.381 -1.119,-2.5 -2.5,-2.5c-1.381,-0 -2.5,1.119 -2.5,2.5c0,0.597 0.218,1.137 0.566,1.567c0.209,0.163 0.406,0.34 0.586,0.533c0.39,0.251 0.851,0.4 1.348,0.4c1.381,-0 2.5,-1.119 2.5,-2.5m-0.5,3.5l-2.426,-0c0.27,0.614 0.426,1.288 0.426,2l0,8c0.553,-0 1,0.448 1,1l0,7.444c0,0.725 0.49,1.39 1.202,1.527c0.959,0.185 1.798,-0.545 1.798,-1.471l0,-8.238c0,-0.138 0.095,-0.257 0.229,-0.288c0.443,-0.104 0.771,-0.501 0.771,-0.974l0,-6c0,-1.657 -1.343,-3 -3,-3m-21,3l0,6c0,0.473 0.328,0.87 0.771,0.974c0.134,0.031 0.229,0.15 0.229,0.288l0,8.182c0,0.725 0.49,1.39 1.202,1.527c0.959,0.185 1.798,-0.545 1.798,-1.471l0,-7.5c0,-0.552 0.447,-1 1,-1l0,-8c0,-0.712 0.156,-1.386 0.426,-2l-2.426,-0c-1.657,-0 -3,1.343 -3,3m5,-9c-1.381,-0 -2.5,1.119 -2.5,2.5c0,1.381 1.119,2.5 2.5,2.5c0.497,-0 0.958,-0.149 1.348,-0.4c0.179,-0.193 0.377,-0.37 0.586,-0.533c0.348,-0.43 0.566,-0.97 0.566,-1.567c0,-1.381 -1.119,-2.5 -2.5,-2.5m4.5,1.5c0,-1.381 1.119,-2.5 2.5,-2.5c1.381,-0 2.5,1.119 2.5,2.5c0,1.381 -1.119,2.5 -2.5,2.5c-1.381,-0 -2.5,-1.119 -2.5,-2.5" style="fill:url(#_Linear1);fill-rule:nonzero;"/></g></g></g></g><defs><linearGradient id="_Linear1" x1="0" y1="0" x2="1" y2="0" gradientUnits="userSpaceOnUse" gradientTransform="matrix(24,0,0,27.9998,-14,-8.15608)"><stop offset="0" style="stop-color:#25e2f5;stop-opacity:1"/><stop offset="0.5" style="stop-color:#1c9aff;stop-opacity:1"/><stop offset="1" style="stop-color:#e062e9;stop-opacity:1"/></linearGradient></defs></svg>