<svg width="8534px" height="8534px" version="1.1" xmlns="http://www.w3.org/2000/svg"
  xmlns:xlink="http://www.w3.org/1999/xlink"
  style="fill-rule:evenodd;clip-rule:evenodd;stroke-linejoin:round;stroke-miterlimit:2;">
  <g transform="matrix(4.16667,0,0,4.16667,0,0)">
    <g id="DataAsset">
      <g id="Set">
        <g id="Highlight" transform="matrix(72.9167,0,0,73.0435,1753.17,1678.91)">
          <path
            d="M0,-19L-13,-19L-14.414,-20.414C-14.789,-20.79 -15.298,-21 -15.828,-21L-20,-21C-21.104,-21 -22,-20.104 -22,-19L-22,-16L2,-16L2,-17C2,-18.104 1.104,-19 0,-19M-22,-14L2,-14L2,0C2,1.104 1.104,2 0,2L-20,2C-21.104,2 -22,1.104 -22,0L-22,-14Z"
            style="fill:#fff;fill-rule:nonzero;" />
        </g>
        <g id="Shadow" transform="matrix(72.9167,0,0,73.0435,1753.17,1758.91)">
          <path
            d="M0,-19L-13,-19L-14.414,-20.414C-14.789,-20.79 -15.298,-21 -15.828,-21L-20,-21C-21.104,-21 -22,-20.104 -22,-19L-22,-16L2,-16L2,-17C2,-18.104 1.104,-19 0,-19M-22,-14L2,-14L2,0C2,1.104 1.104,2 0,2L-20,2C-21.104,2 -22,1.104 -22,0L-22,-14Z"
            style="fill:#363636;fill-rule:nonzero;" />
        </g>
        <g id="Icon" transform="matrix(72.9167,0,0,73.0435,1753.17,1717.91)">
          <path
            d="M0,-19L-13,-19L-14.414,-20.414C-14.789,-20.79 -15.298,-21 -15.828,-21L-20,-21C-21.104,-21 -22,-20.104 -22,-19L-22,-16L2,-16L2,-17C2,-18.104 1.104,-19 0,-19M-22,-14L2,-14L2,0C2,1.104 1.104,2 0,2L-20,2C-21.104,2 -22,1.104 -22,0L-22,-14Z"
            style="fill:url(#_Linear1);fill-rule:nonzero;" />
        </g>
      </g>
      <g id="NActorPool">
        <g id="Shadow1" transform="matrix(33.3333,0,0,33.4288,1090.67,1610.65)">
          <path
            d="M0,-16.156L-4,-16.156C-5.657,-16.156 -7,-14.813 -7,-13.156L-7,-5.156C-7,-4.683 -6.672,-4.286 -6.229,-4.182C-6.095,-4.151 -6,-4.032 -6,-3.894L-6,4.288C-6,5.013 -5.51,5.678 -4.798,5.815C-3.839,6 -3,5.27 -3,4.344L-3,-3.103C-3,-3.601 -2.659,-4.062 -2.168,-4.142C-1.541,-4.244 -1,-3.763 -1,-3.156L-1,4.288C-1,5.013 -0.51,5.678 0.202,5.815C1.161,6 2,5.27 2,4.344L2,-3.894C2,-4.032 2.095,-4.151 2.229,-4.182C2.672,-4.286 3,-4.683 3,-5.156L3,-13.156C3,-14.813 1.657,-16.156 0,-16.156M7.5,-18.656C7.5,-20.037 6.381,-21.156 5,-21.156C3.619,-21.156 2.5,-20.037 2.5,-18.656C2.5,-18.059 2.718,-17.519 3.066,-17.089C3.275,-16.926 3.472,-16.749 3.652,-16.556C4.042,-16.305 4.503,-16.156 5,-16.156C6.381,-16.156 7.5,-17.275 7.5,-18.656M7,-15.156L4.574,-15.156C4.844,-14.542 5,-13.868 5,-13.156L5,-5.156C5.553,-5.156 6,-4.708 6,-4.156L6,3.288C6,4.013 6.49,4.678 7.202,4.815C8.161,5 9,4.27 9,3.344L9,-4.894C9,-5.032 9.095,-5.151 9.229,-5.182C9.672,-5.286 10,-5.683 10,-6.156L10,-12.156C10,-13.813 8.657,-15.156 7,-15.156M-14,-12.156L-14,-6.156C-14,-5.683 -13.672,-5.286 -13.229,-5.182C-13.095,-5.151 -13,-5.032 -13,-4.894L-13,3.288C-13,4.013 -12.51,4.678 -11.798,4.815C-10.839,5 -10,4.27 -10,3.344L-10,-4.156C-10,-4.708 -9.553,-5.156 -9,-5.156L-9,-13.156C-9,-13.868 -8.844,-14.542 -8.574,-15.156L-11,-15.156C-12.657,-15.156 -14,-13.813 -14,-12.156M-9,-21.156C-10.381,-21.156 -11.5,-20.037 -11.5,-18.656C-11.5,-17.275 -10.381,-16.156 -9,-16.156C-8.503,-16.156 -8.042,-16.305 -7.652,-16.556C-7.473,-16.749 -7.275,-16.926 -7.066,-17.089C-6.718,-17.519 -6.5,-18.059 -6.5,-18.656C-6.5,-20.037 -7.619,-21.156 -9,-21.156M-4.5,-19.656C-4.5,-21.037 -3.381,-22.156 -2,-22.156C-0.619,-22.156 0.5,-21.037 0.5,-19.656C0.5,-18.275 -0.619,-17.156 -2,-17.156C-3.381,-17.156 -4.5,-18.275 -4.5,-19.656"
            style="fill:#363636;fill-rule:nonzero;" />
        </g>
        <g id="Icon1" transform="matrix(33.3333,0,0,33.4288,1090.67,1570.15)">
          <path
            d="M0,-16.156L-4,-16.156C-5.657,-16.156 -7,-14.813 -7,-13.156L-7,-5.156C-7,-4.683 -6.672,-4.286 -6.229,-4.182C-6.095,-4.151 -6,-4.032 -6,-3.894L-6,4.288C-6,5.013 -5.51,5.678 -4.798,5.815C-3.839,6 -3,5.27 -3,4.344L-3,-3.103C-3,-3.601 -2.659,-4.062 -2.168,-4.142C-1.541,-4.244 -1,-3.763 -1,-3.156L-1,4.288C-1,5.013 -0.51,5.678 0.202,5.815C1.161,6 2,5.27 2,4.344L2,-3.894C2,-4.032 2.095,-4.151 2.229,-4.182C2.672,-4.286 3,-4.683 3,-5.156L3,-13.156C3,-14.813 1.657,-16.156 0,-16.156M7.5,-18.656C7.5,-20.037 6.381,-21.156 5,-21.156C3.619,-21.156 2.5,-20.037 2.5,-18.656C2.5,-18.059 2.718,-17.519 3.066,-17.089C3.275,-16.926 3.472,-16.749 3.652,-16.556C4.042,-16.305 4.503,-16.156 5,-16.156C6.381,-16.156 7.5,-17.275 7.5,-18.656M7,-15.156L4.574,-15.156C4.844,-14.542 5,-13.868 5,-13.156L5,-5.156C5.553,-5.156 6,-4.708 6,-4.156L6,3.288C6,4.013 6.49,4.678 7.202,4.815C8.161,5 9,4.27 9,3.344L9,-4.894C9,-5.032 9.095,-5.151 9.229,-5.182C9.672,-5.286 10,-5.683 10,-6.156L10,-12.156C10,-13.813 8.657,-15.156 7,-15.156M-14,-12.156L-14,-6.156C-14,-5.683 -13.672,-5.286 -13.229,-5.182C-13.095,-5.151 -13,-5.032 -13,-4.894L-13,3.288C-13,4.013 -12.51,4.678 -11.798,4.815C-10.839,5 -10,4.27 -10,3.344L-10,-4.156C-10,-4.708 -9.553,-5.156 -9,-5.156L-9,-13.156C-9,-13.868 -8.844,-14.542 -8.574,-15.156L-11,-15.156C-12.657,-15.156 -14,-13.813 -14,-12.156M-9,-21.156C-10.381,-21.156 -11.5,-20.037 -11.5,-18.656C-11.5,-17.275 -10.381,-16.156 -9,-16.156C-8.503,-16.156 -8.042,-16.305 -7.652,-16.556C-7.473,-16.749 -7.275,-16.926 -7.066,-17.089C-6.718,-17.519 -6.5,-18.059 -6.5,-18.656C-6.5,-20.037 -7.619,-21.156 -9,-21.156M-4.5,-19.656C-4.5,-21.037 -3.381,-22.156 -2,-22.156C-0.619,-22.156 0.5,-21.037 0.5,-19.656C0.5,-18.275 -0.619,-17.156 -2,-17.156C-3.381,-17.156 -4.5,-18.275 -4.5,-19.656"
            style="fill:#fff;fill-rule:nonzero;" />
        </g>
      </g>
    </g>
  </g>
  <defs>
    <linearGradient id="_Linear1" x1="0" y1="0" x2="1" y2="0" gradientUnits="userSpaceOnUse"
      gradientTransform="matrix(24,0,0,23,-22,-9.5)">
      <stop offset="0" style="stop-color:#25e2f5;stop-opacity:1" />
      <stop offset="0.5" style="stop-color:#1c9aff;stop-opacity:1" />
      <stop offset="1" style="stop-color:#e062e9;stop-opacity:1" />
    </linearGradient>
  </defs>
</svg>