<?xml version="1.0" encoding="UTF-8" standalone="no"?><!DOCTYPE svg PUBLIC "-//W3C//DTD SVG 1.1//EN" "http://www.w3.org/Graphics/SVG/1.1/DTD/svg11.dtd"><svg width="2048px" height="2048px" version="1.1" xmlns="http://www.w3.org/2000/svg" xmlns:xlink="http://www.w3.org/1999/xlink" xml:space="preserve" xmlns:serif="http://www.serif.com/" style="fill-rule:evenodd;clip-rule:evenodd;stroke-linejoin:round;stroke-miterlimit:2;"><g id="Actor"></g><g id="NKillZoneComponent" transform="matrix(0.934547,0,0,0.934547,67.0236,67.069)"><g id="ActorComponent"><g id="NKillZoneComponent1" serif:id="NKillZoneComponent"><g id="Highlight" transform="matrix(62.5483,0,0,62.5483,1404.17,760.234)"><path d="M0,7.188l-1.156,0.963c-0.507,0.423 -1.304,0.387 -1.771,-0.08l-1.302,-1.303c-0.467,-0.467 -0.625,-1.299 -0.349,-1.849c0.275,-0.549 1.04,-1 1.7,-1l1.6,0c0.66,0 1.4,0.501 1.645,1.115l0.11,0.271c0.245,0.613 0.03,1.46 -0.477,1.883m-4.973,4.284l-0.211,-0.105c-0.492,-0.246 -1.296,-0.246 -1.789,0l-0.211,0.105c-0.492,0.246 -0.693,0.045 -0.447,-0.447l1.106,-2.211c0.246,-0.492 0.648,-0.492 0.894,0l1.106,2.211c0.246,0.492 0.045,0.693 -0.448,0.447m-4.256,-3.401c-0.467,0.467 -1.264,0.503 -1.771,0.08l-1.156,-0.963c-0.507,-0.423 -0.722,-1.27 -0.477,-1.883l0.11,-0.271c0.245,-0.614 0.985,-1.115 1.645,-1.115l1.6,0c0.66,0 1.424,0.451 1.7,1c0.275,0.55 0.118,1.382 -0.349,1.849l-1.302,1.303Zm15.651,-0.152l-1.983,0c-0.619,-0.334 -1.349,-0.728 -2.156,-1.165l0.079,-0.476c0.329,-0.603 0.56,-1.279 0.56,-2.009c0,-1.191 -0.07,-2.324 -0.232,-3.377c0.662,-0.358 1.262,-0.685 1.789,-0.973l1.943,0c0.828,0 1.5,-0.671 1.5,-1.5c0,-0.828 -0.672,-1.5 -1.5,-1.5l-0.5,0l0,-0.5c0,-0.828 -0.672,-1.5 -1.5,-1.5c-0.828,0 -1.5,0.672 -1.5,1.5l0,0.933c-0.321,0.175 -0.668,0.363 -1.04,0.565c-1.213,-2.863 -3.627,-4.648 -7.96,-4.648c-4.388,0 -6.81,1.71 -8.007,4.623c-0.356,-0.193 -0.685,-0.372 -0.993,-0.54l0,-0.933c0,-0.828 -0.672,-1.5 -1.5,-1.5c-0.828,0 -1.5,0.672 -1.5,1.5l0,0.5l-0.5,0c-0.828,0 -1.5,0.672 -1.5,1.5c0,0.829 0.672,1.5 1.5,1.5l1.943,0c0.526,0.287 1.117,0.609 1.776,0.966c-0.151,1.045 -0.219,2.175 -0.219,3.384c0,0.73 0.23,1.406 0.559,2.009l0.08,0.476c-0.813,0.44 -1.534,0.83 -2.157,1.165l-1.982,0c-0.828,0 -1.5,0.672 -1.5,1.5c0,0.829 0.672,1.5 1.5,1.5l0.5,0l0,0.5c0,0.829 0.672,1.5 1.5,1.5c0.828,0 1.5,-0.671 1.5,-1.5l0,-0.909c0.639,-0.344 1.377,-0.743 2.202,-1.19l0.85,0.283c0.521,0.174 1.057,0.753 1.19,1.286l0.516,2.061c0.132,0.533 0.692,0.969 1.242,0.969l6,0c0.55,0 1.109,-0.436 1.242,-0.969l0.516,-2.061c0.133,-0.533 0.669,-1.112 1.19,-1.286l0.85,-0.283c0.822,0.445 1.566,0.847 2.202,1.19l0,0.909c0,0.829 0.672,1.5 1.5,1.5c0.828,0 1.5,-0.671 1.5,-1.5l0,-0.5l0.5,0c0.828,0 1.5,-0.671 1.5,-1.5c0,-0.828 -0.672,-1.5 -1.5,-1.5" style="fill:#fff;fill-rule:nonzero;"/></g><g id="Shadow" transform="matrix(62.5483,0,0,62.5483,1404.17,838.072)"><path d="M0,7.188l-1.156,0.963c-0.507,0.423 -1.304,0.387 -1.771,-0.08l-1.302,-1.303c-0.467,-0.467 -0.625,-1.299 -0.349,-1.849c0.275,-0.549 1.04,-1 1.7,-1l1.6,0c0.66,0 1.4,0.501 1.645,1.115l0.11,0.271c0.245,0.613 0.03,1.46 -0.477,1.883m-4.973,4.284l-0.211,-0.105c-0.492,-0.246 -1.296,-0.246 -1.789,0l-0.211,0.105c-0.492,0.246 -0.693,0.045 -0.447,-0.447l1.106,-2.211c0.246,-0.492 0.648,-0.492 0.894,0l1.106,2.211c0.246,0.492 0.045,0.693 -0.448,0.447m-4.256,-3.401c-0.467,0.467 -1.264,0.503 -1.771,0.08l-1.156,-0.963c-0.507,-0.423 -0.722,-1.27 -0.477,-1.883l0.11,-0.271c0.245,-0.614 0.985,-1.115 1.645,-1.115l1.6,0c0.66,0 1.424,0.451 1.7,1c0.275,0.55 0.118,1.382 -0.349,1.849l-1.302,1.303Zm15.651,-0.152l-1.983,0c-0.619,-0.334 -1.349,-0.728 -2.156,-1.165l0.079,-0.476c0.329,-0.603 0.56,-1.279 0.56,-2.009c0,-1.191 -0.07,-2.324 -0.232,-3.377c0.662,-0.358 1.262,-0.685 1.789,-0.973l1.943,0c0.828,0 1.5,-0.671 1.5,-1.5c0,-0.828 -0.672,-1.5 -1.5,-1.5l-0.5,0l0,-0.5c0,-0.828 -0.672,-1.5 -1.5,-1.5c-0.828,0 -1.5,0.672 -1.5,1.5l0,0.933c-0.321,0.175 -0.668,0.363 -1.04,0.565c-1.213,-2.863 -3.627,-4.648 -7.96,-4.648c-4.388,0 -6.81,1.71 -8.007,4.623c-0.356,-0.193 -0.685,-0.372 -0.993,-0.54l0,-0.933c0,-0.828 -0.672,-1.5 -1.5,-1.5c-0.828,0 -1.5,0.672 -1.5,1.5l0,0.5l-0.5,0c-0.828,0 -1.5,0.672 -1.5,1.5c0,0.829 0.672,1.5 1.5,1.5l1.943,0c0.526,0.287 1.117,0.609 1.776,0.966c-0.151,1.045 -0.219,2.175 -0.219,3.384c0,0.73 0.23,1.406 0.559,2.009l0.08,0.476c-0.813,0.44 -1.534,0.83 -2.157,1.165l-1.982,0c-0.828,0 -1.5,0.672 -1.5,1.5c0,0.829 0.672,1.5 1.5,1.5l0.5,0l0,0.5c0,0.829 0.672,1.5 1.5,1.5c0.828,0 1.5,-0.671 1.5,-1.5l0,-0.909c0.639,-0.344 1.377,-0.743 2.202,-1.19l0.85,0.283c0.521,0.174 1.057,0.753 1.19,1.286l0.516,2.061c0.132,0.533 0.692,0.969 1.242,0.969l6,0c0.55,0 1.109,-0.436 1.242,-0.969l0.516,-2.061c0.133,-0.533 0.669,-1.112 1.19,-1.286l0.85,-0.283c0.822,0.445 1.566,0.847 2.202,1.19l0,0.909c0,0.829 0.672,1.5 1.5,1.5c0.828,0 1.5,-0.671 1.5,-1.5l0,-0.5l0.5,0c0.828,0 1.5,-0.671 1.5,-1.5c0,-0.828 -0.672,-1.5 -1.5,-1.5" style="fill:#363636;fill-rule:nonzero;"/></g><g id="Icon" transform="matrix(62.5483,0,0,62.5483,1404.17,799.202)"><path d="M0,7.188l-1.156,0.963c-0.507,0.423 -1.304,0.387 -1.771,-0.08l-1.302,-1.303c-0.467,-0.467 -0.625,-1.299 -0.349,-1.849c0.275,-0.549 1.04,-1 1.7,-1l1.6,0c0.66,0 1.4,0.501 1.645,1.115l0.11,0.271c0.245,0.613 0.03,1.46 -0.477,1.883m-4.973,4.284l-0.211,-0.105c-0.492,-0.246 -1.296,-0.246 -1.789,0l-0.211,0.105c-0.492,0.246 -0.693,0.045 -0.447,-0.447l1.106,-2.211c0.246,-0.492 0.648,-0.492 0.894,0l1.106,2.211c0.246,0.492 0.045,0.693 -0.448,0.447m-4.256,-3.401c-0.467,0.467 -1.264,0.503 -1.771,0.08l-1.156,-0.963c-0.507,-0.423 -0.722,-1.27 -0.477,-1.883l0.11,-0.271c0.245,-0.614 0.985,-1.115 1.645,-1.115l1.6,0c0.66,0 1.424,0.451 1.7,1c0.275,0.55 0.118,1.382 -0.349,1.849l-1.302,1.303Zm15.651,-0.152l-1.983,0c-0.619,-0.334 -1.349,-0.728 -2.156,-1.165l0.079,-0.476c0.329,-0.603 0.56,-1.279 0.56,-2.009c0,-1.191 -0.07,-2.324 -0.232,-3.377c0.662,-0.358 1.262,-0.685 1.789,-0.973l1.943,0c0.828,0 1.5,-0.671 1.5,-1.5c0,-0.828 -0.672,-1.5 -1.5,-1.5l-0.5,0l0,-0.5c0,-0.828 -0.672,-1.5 -1.5,-1.5c-0.828,0 -1.5,0.672 -1.5,1.5l0,0.933c-0.321,0.175 -0.668,0.363 -1.04,0.565c-1.213,-2.863 -3.627,-4.648 -7.96,-4.648c-4.388,0 -6.81,1.71 -8.007,4.623c-0.356,-0.193 -0.685,-0.372 -0.993,-0.54l0,-0.933c0,-0.828 -0.672,-1.5 -1.5,-1.5c-0.828,0 -1.5,0.672 -1.5,1.5l0,0.5l-0.5,0c-0.828,0 -1.5,0.672 -1.5,1.5c0,0.829 0.672,1.5 1.5,1.5l1.943,0c0.526,0.287 1.117,0.609 1.776,0.966c-0.151,1.045 -0.219,2.175 -0.219,3.384c0,0.73 0.23,1.406 0.559,2.009l0.08,0.476c-0.813,0.44 -1.534,0.83 -2.157,1.165l-1.982,0c-0.828,0 -1.5,0.672 -1.5,1.5c0,0.829 0.672,1.5 1.5,1.5l0.5,0l0,0.5c0,0.829 0.672,1.5 1.5,1.5c0.828,0 1.5,-0.671 1.5,-1.5l0,-0.909c0.639,-0.344 1.377,-0.743 2.202,-1.19l0.85,0.283c0.521,0.174 1.057,0.753 1.19,1.286l0.516,2.061c0.132,0.533 0.692,0.969 1.242,0.969l6,0c0.55,0 1.109,-0.436 1.242,-0.969l0.516,-2.061c0.133,-0.533 0.669,-1.112 1.19,-1.286l0.85,-0.283c0.822,0.445 1.566,0.847 2.202,1.19l0,0.909c0,0.829 0.672,1.5 1.5,1.5c0.828,0 1.5,-0.671 1.5,-1.5l0,-0.5l0.5,0c0.828,0 1.5,-0.671 1.5,-1.5c0,-0.828 -0.672,-1.5 -1.5,-1.5" style="fill:url(#_Linear1);fill-rule:nonzero;"/></g></g></g></g><defs><linearGradient id="_Linear1" x1="0" y1="0" x2="1" y2="0" gradientUnits="userSpaceOnUse" gradientTransform="matrix(28,0,0,20.65,-20.078,3.594)"><stop offset="0" style="stop-color:#25e2f5;stop-opacity:1"/><stop offset="0.5" style="stop-color:#1c9aff;stop-opacity:1"/><stop offset="1" style="stop-color:#e062e9;stop-opacity:1"/></linearGradient></defs></svg>