<?xml version="1.0" encoding="UTF-8" standalone="no"?><!DOCTYPE svg PUBLIC "-//W3C//DTD SVG 1.1//EN" "http://www.w3.org/Graphics/SVG/1.1/DTD/svg11.dtd"><svg width="8534px" height="8534px" version="1.1" xmlns="http://www.w3.org/2000/svg" xmlns:xlink="http://www.w3.org/1999/xlink" xml:space="preserve" xmlns:serif="http://www.serif.com/" style="fill-rule:evenodd;clip-rule:evenodd;stroke-linejoin:round;stroke-miterlimit:2;"><g transform="matrix(4.16667,0,0,4.16667,0,0)"><g id="Actor"><g id="NPooledActor"><g id="Highlight" transform="matrix(62.3887,0,0,62.5,1407.65,985.938)"><path d="M0,-0.062L-2.575,-3.281L-2.575,-4.531C-2.575,-8.673 -5.933,-12.031 -10.075,-12.031L-13.075,-12.031C-17.218,-12.031 -20.575,-8.673 -20.575,-4.531L-20.575,-2.7C-20.575,-0.674 -19.756,1.265 -18.304,2.677L-17.691,3.272C-16.712,4.225 -16.499,5.718 -17.175,6.906L-19.203,10.475C-19.581,11.141 -19.1,11.969 -18.333,11.969L-7.575,11.969C-7.022,11.969 -6.575,11.521 -6.575,10.969L-6.575,9.969C-6.575,9.417 -6.128,8.969 -5.575,8.969L-5.075,8.969C-3.694,8.969 -2.575,7.85 -2.575,6.469L-2.575,1.969L-0.976,1.969C0.072,1.969 0.655,0.756 0,-0.062M7.024,1.969L5.425,1.969L5.425,6.469C5.425,7.85 4.306,8.969 2.925,8.969L2.425,8.969C1.872,8.969 1.425,9.417 1.425,9.969L1.425,10.969C1.425,11.521 0.978,11.969 0.425,11.969L-4.76,11.969C-4.647,11.654 -4.575,11.321 -4.575,10.969L-4.575,10.941C-2.328,10.691 -0.575,8.781 -0.575,6.469L-0.575,3.945C0.52,3.813 1.467,3.141 1.954,2.126C2.5,0.99 2.35,-0.328 1.562,-1.312L-0.575,-3.983L-0.575,-4.531C-0.575,-7.581 -2.025,-10.292 -4.266,-12.031L-2.075,-12.031C2.067,-12.031 5.425,-8.673 5.425,-4.531L5.425,-3.281L8,-0.062C8.655,0.756 8.072,1.969 7.024,1.969" style="fill:#fff;fill-rule:nonzero;"/></g><g id="Shadow" transform="matrix(62.3887,0,0,62.5,1407.65,1065.94)"><path d="M0,-0.062L-2.575,-3.281L-2.575,-4.531C-2.575,-8.673 -5.933,-12.031 -10.075,-12.031L-13.075,-12.031C-17.218,-12.031 -20.575,-8.673 -20.575,-4.531L-20.575,-2.7C-20.575,-0.674 -19.756,1.265 -18.304,2.677L-17.691,3.272C-16.712,4.225 -16.499,5.718 -17.175,6.906L-19.203,10.475C-19.581,11.141 -19.1,11.969 -18.333,11.969L-7.575,11.969C-7.022,11.969 -6.575,11.521 -6.575,10.969L-6.575,9.969C-6.575,9.417 -6.128,8.969 -5.575,8.969L-5.075,8.969C-3.694,8.969 -2.575,7.85 -2.575,6.469L-2.575,1.969L-0.976,1.969C0.072,1.969 0.655,0.756 0,-0.062M7.024,1.969L5.425,1.969L5.425,6.469C5.425,7.85 4.306,8.969 2.925,8.969L2.425,8.969C1.872,8.969 1.425,9.417 1.425,9.969L1.425,10.969C1.425,11.521 0.978,11.969 0.425,11.969L-4.76,11.969C-4.647,11.654 -4.575,11.321 -4.575,10.969L-4.575,10.941C-2.328,10.691 -0.575,8.781 -0.575,6.469L-0.575,3.945C0.52,3.813 1.467,3.141 1.954,2.126C2.5,0.99 2.35,-0.328 1.562,-1.312L-0.575,-3.983L-0.575,-4.531C-0.575,-7.581 -2.025,-10.292 -4.266,-12.031L-2.075,-12.031C2.067,-12.031 5.425,-8.673 5.425,-4.531L5.425,-3.281L8,-0.062C8.655,0.756 8.072,1.969 7.024,1.969" style="fill:#363636;fill-rule:nonzero;"/></g><g id="Icon" transform="matrix(62.3887,0,0,62.5,1407.65,1025.94)"><path d="M0,-0.062L-2.575,-3.281L-2.575,-4.531C-2.575,-8.673 -5.933,-12.031 -10.075,-12.031L-13.075,-12.031C-17.218,-12.031 -20.575,-8.673 -20.575,-4.531L-20.575,-2.7C-20.575,-0.674 -19.756,1.265 -18.304,2.677L-17.691,3.272C-16.712,4.225 -16.499,5.718 -17.175,6.906L-19.203,10.475C-19.581,11.141 -19.1,11.969 -18.333,11.969L-7.575,11.969C-7.022,11.969 -6.575,11.521 -6.575,10.969L-6.575,9.969C-6.575,9.417 -6.128,8.969 -5.575,8.969L-5.075,8.969C-3.694,8.969 -2.575,7.85 -2.575,6.469L-2.575,1.969L-0.976,1.969C0.072,1.969 0.655,0.756 0,-0.062M7.024,1.969L5.425,1.969L5.425,6.469C5.425,7.85 4.306,8.969 2.925,8.969L2.425,8.969C1.872,8.969 1.425,9.417 1.425,9.969L1.425,10.969C1.425,11.521 0.978,11.969 0.425,11.969L-4.76,11.969C-4.647,11.654 -4.575,11.321 -4.575,10.969L-4.575,10.941C-2.328,10.691 -0.575,8.781 -0.575,6.469L-0.575,3.945C0.52,3.813 1.467,3.141 1.954,2.126C2.5,0.99 2.35,-0.328 1.562,-1.312L-0.575,-3.983L-0.575,-4.531C-0.575,-7.581 -2.025,-10.292 -4.266,-12.031L-2.075,-12.031C2.067,-12.031 5.425,-8.673 5.425,-4.531L5.425,-3.281L8,-0.062C8.655,0.756 8.072,1.969 7.024,1.969" style="fill:url(#_Linear1);fill-rule:nonzero;"/></g></g></g></g><defs><linearGradient id="_Linear1" x1="0" y1="0" x2="1" y2="0" gradientUnits="userSpaceOnUse" gradientTransform="matrix(28.8514,0,0,24,-20.575,-0.031)"><stop offset="0" style="stop-color:#25e2f5;stop-opacity:1"/><stop offset="0.5" style="stop-color:#1c9aff;stop-opacity:1"/><stop offset="1" style="stop-color:#e062e9;stop-opacity:1"/></linearGradient></defs></svg>