<?xml version="1.0" encoding="UTF-8" standalone="no"?><!DOCTYPE svg PUBLIC "-//W3C//DTD SVG 1.1//EN" "http://www.w3.org/Graphics/SVG/1.1/DTD/svg11.dtd"><svg width="100%" height="100%" viewBox="0 0 8534 8534" version="1.1" xmlns="http://www.w3.org/2000/svg" xmlns:xlink="http://www.w3.org/1999/xlink" xml:space="preserve" xmlns:serif="http://www.serif.com/" style="fill-rule:evenodd;clip-rule:evenodd;stroke-linejoin:round;stroke-miterlimit:2;"><g transform="matrix(4.16667,0,0,4.16667,0,0)"><g id="Actor" transform="matrix(14.6545,0,0,14.6545,-26529.6,-6344)"><g id="NCollisionQueryTestActor"><g id="Highlight" transform="matrix(4.92862,0,0,4.92138,1932.29,463.789)"><path d="M0,14.629l-4.917,-2.59c-0.784,1.581 -2.524,2.718 -4.288,2.718l-2.727,0c-1.763,0 -3.503,-1.137 -4.288,-2.718l-4.917,2.59c-0.514,0.201 -0.931,0.812 -0.931,1.365l0,2.763c0,0.552 0.447,1 1,1l21,0c0.552,0 1,-0.448 1,-1l0,-2.763c0,-0.553 -0.417,-1.164 -0.932,-1.365m-19.429,-10.46l2.954,0.837c0.012,0.051 0.017,0.099 0.034,0.15l1.882,5.702c0.345,1.044 1.527,1.899 2.627,1.899l2.727,0c1.101,0 2.282,-0.855 2.627,-1.899l1.883,-5.702c0.013,-0.041 0.016,-0.08 0.027,-0.121l2.965,-0.864c0.248,-0.072 0.399,-0.32 0.351,-0.573l-0.157,-0.835c-0.048,-0.254 -0.281,-0.429 -0.539,-0.405l-0.314,0.031l-8.08,1.377l-8.312,-1.378l-0.339,-0.031c-0.258,-0.025 -0.491,0.152 -0.538,0.407l-0.153,0.834c-0.047,0.253 0.107,0.501 0.355,0.571m8.982,-2.421l-5.924,-0.659l1.729,-5.38c0.17,-0.526 0.74,-0.837 1.274,-0.696l2.8,0.744l2.799,-0.744c0.535,-0.141 1.104,0.17 1.274,0.696l1.732,5.389l-5.684,0.65Z" style="fill:#fff;fill-rule:nonzero;"/></g><g id="Shadow" transform="matrix(4.92862,0,0,4.92138,1932.29,469.248)"><path d="M0,14.629l-4.917,-2.59c-0.784,1.581 -2.524,2.718 -4.288,2.718l-2.727,0c-1.763,0 -3.503,-1.137 -4.288,-2.718l-4.917,2.59c-0.514,0.201 -0.931,0.812 -0.931,1.365l0,2.763c0,0.552 0.447,1 1,1l21,0c0.552,0 1,-0.448 1,-1l0,-2.763c0,-0.553 -0.417,-1.164 -0.932,-1.365m-19.429,-10.46l2.954,0.837c0.012,0.051 0.017,0.099 0.034,0.15l1.882,5.702c0.345,1.044 1.527,1.899 2.627,1.899l2.727,0c1.101,0 2.282,-0.855 2.627,-1.899l1.883,-5.702c0.013,-0.041 0.016,-0.08 0.027,-0.121l2.965,-0.864c0.248,-0.072 0.399,-0.32 0.351,-0.573l-0.157,-0.835c-0.048,-0.254 -0.281,-0.429 -0.539,-0.405l-0.314,0.031l-8.08,1.377l-8.312,-1.378l-0.339,-0.031c-0.258,-0.025 -0.491,0.152 -0.538,0.407l-0.153,0.834c-0.047,0.253 0.107,0.501 0.355,0.571m8.982,-2.421l-5.924,-0.659l1.729,-5.38c0.17,-0.526 0.74,-0.837 1.274,-0.696l2.8,0.744l2.799,-0.744c0.535,-0.141 1.104,0.17 1.274,0.696l1.732,5.389l-5.684,0.65Z" style="fill:#363636;fill-rule:nonzero;"/></g><g id="Icon" transform="matrix(4.92862,0,0,4.92138,1932.29,466.518)"><path d="M0,14.629l-4.917,-2.59c-0.784,1.581 -2.524,2.718 -4.288,2.718l-2.727,0c-1.763,0 -3.503,-1.137 -4.288,-2.718l-4.917,2.59c-0.514,0.201 -0.931,0.812 -0.931,1.365l0,2.763c0,0.552 0.447,1 1,1l21,0c0.552,0 1,-0.448 1,-1l0,-2.763c0,-0.553 -0.417,-1.164 -0.932,-1.365m-19.429,-10.46l2.954,0.837c0.012,0.051 0.017,0.099 0.034,0.15l1.882,5.702c0.345,1.044 1.527,1.899 2.627,1.899l2.727,0c1.101,0 2.282,-0.855 2.627,-1.899l1.883,-5.702c0.013,-0.041 0.016,-0.08 0.027,-0.121l2.965,-0.864c0.248,-0.072 0.399,-0.32 0.351,-0.573l-0.157,-0.835c-0.048,-0.254 -0.281,-0.429 -0.539,-0.405l-0.314,0.031l-8.08,1.377l-8.312,-1.378l-0.339,-0.031c-0.258,-0.025 -0.491,0.152 -0.538,0.407l-0.153,0.834c-0.047,0.253 0.107,0.501 0.355,0.571m8.982,-2.421l-5.924,-0.659l1.729,-5.38c0.17,-0.526 0.74,-0.837 1.274,-0.696l2.8,0.744l2.799,-0.744c0.535,-0.141 1.104,0.17 1.274,0.696l1.732,5.389l-5.684,0.65Z" style="fill:url(#_Linear1);fill-rule:nonzero;"/></g></g></g></g><defs><linearGradient id="_Linear1" x1="0" y1="0" x2="1" y2="0" gradientUnits="userSpaceOnUse" gradientTransform="matrix(23,0,0,24.7779,-22.068,7.36803)"><stop offset="0" style="stop-color:#25e2f5;stop-opacity:1"/><stop offset="0.5" style="stop-color:#1c9aff;stop-opacity:1"/><stop offset="1" style="stop-color:#e062e9;stop-opacity:1"/></linearGradient></defs></svg>